<svg height="512pt" viewBox="-51 0 512 512" width="512pt" xmlns="http://www.w3.org/2000/svg"><path d="m129.773438 450.335938c4.363281 30.621093 30.679687 54.164062 62.503906 54.164062 31.824218 0 58.140625-23.542969 62.507812-54.164062zm0 0" fill="#e79732"/><path d="m215.59375 450.335938c-3.429688 24.039062-20.382812 43.714843-42.90625 51.058593 6.171875 2.027344 12.75 3.109375 19.589844 3.109375 31.828125 0 58.132812-23.546875 62.5-54.167968zm0 0" fill="#dd801b"/><path d="m192.277344 94.902344c-24.097656 0-43.699219-19.601563-43.699219-43.699219s19.605469-43.703125 43.699219-43.703125c24.097656 0 43.703125 19.605469 43.703125 43.703125s-19.605469 43.699219-43.703125 43.699219zm0-60.71875c-9.382813 0-17.019532 7.632812-17.019532 17.019531 0 9.382813 7.636719 17.015625 17.019532 17.015625 9.382812 0 17.019531-7.632812 17.019531-17.015625 0-9.386719-7.636719-17.019531-17.019531-17.019531zm0 0" fill="#faaa3c"/><path d="m353.65625 431.175781h-322.753906c0-15.691406 5.964844-29.980469 15.765625-40.730469 9.371093-10.289062 14.652343-23.640624 14.652343-37.558593v-132.332031c0-36.160157 14.664063-68.894532 38.359376-92.601563 23.695312-23.703125 56.4375-38.359375 92.597656-38.359375 57.273437 0 105.960937 36.78125 123.742187 88 4.675781 13.460938 7.214844 27.910156 7.214844 42.960938v132.332031c0 13.917969 5.285156 27.269531 14.65625 37.558593 4.898437 5.371094 8.835937 11.636719 11.558594 18.507813 2.710937 6.882813 4.207031 14.378906 4.207031 22.222656zm0 0" fill="#f1dd47"/><path d="m353.65625 431.175781h-20.570312c0-7.847656-1.492188-15.339843-4.203126-22.222656-2.722656-6.871094-6.660156-13.136719-11.558593-18.507813-9.371094-10.289062-14.65625-23.640624-14.65625-37.558593v-132.332031c0-15.050782-2.539063-29.5-7.214844-42.960938-16.703125-48.125-60.695313-83.503906-113.464844-87.59375 3.394531-.265625 6.832031-.40625 10.289063-.40625 57.273437 0 105.960937 36.78125 123.742187 88 4.675781 13.460938 7.214844 27.910156 7.214844 42.960938v132.332031c0 13.917969 5.285156 27.269531 14.65625 37.558593 4.898437 5.371094 8.835937 11.636719 11.558594 18.507813 2.710937 6.882813 4.207031 14.378906 4.207031 22.222656zm0 0" fill="#efc40f"/><path d="m323.234375 220.554688v99.640624l-110.976563 110.980469h-149.804687l253.566406-253.582031c4.675781 13.460938 7.214844 27.910156 7.214844 42.960938zm0 0" fill="#efc40f"/><path d="m61.320312 242.242188h261.914063v65.050781h-261.914063zm0 0" fill="#faaa3c"/><path d="m323.234375 242.242188v65.050781h-136.902344l65.042969-65.050781zm0 0" fill="#e79732"/><path d="m403.269531 184.324219c0 44.371093-35.96875 80.34375-80.339843 80.34375-44.371094 0-80.34375-35.972657-80.34375-80.34375 0-44.371094 35.972656-80.339844 80.34375-80.339844 44.371093 0 80.339843 35.96875 80.339843 80.339844zm0 0" fill="#eb5777"/><path d="m366.382812 459.832031h-348.210937c-5.894531 0-10.671875-4.777343-10.671875-10.671875v-23.398437c0-5.894531 4.777344-10.671875 10.671875-10.671875h348.210937c5.898438 0 10.675782 4.777344 10.675782 10.671875v23.398437c0 5.894532-4.78125 10.671875-10.675782 10.671875zm0 0" fill="#ffeb9b"/><path d="m216.796875 51.203125c0-13.519531-11-24.519531-24.519531-24.519531-13.519532 0-24.519532 11-24.519532 24.519531s11 24.515625 24.519532 24.515625c13.519531 0 24.519531-10.996094 24.519531-24.515625zm-34.039063 0c0-5.25 4.273438-9.519531 9.519532-9.519531 5.25 0 9.519531 4.269531 9.519531 9.519531 0 5.246094-4.269531 9.515625-9.519531 9.515625-5.246094 0-9.519532-4.269531-9.519532-9.515625zm0 0"/><path d="m410.769531 184.324219c0-48.433594-39.40625-87.839844-87.839843-87.839844-17.300782 0-33.445313 5.027344-47.058594 13.699219-14.078125-10.667969-30.089844-18.5-47.023438-23.140625 9.253906-9.414063 14.632813-22.167969 14.632813-35.839844 0-28.234375-22.96875-51.203125-51.203125-51.203125-28.230469 0-51.199219 22.96875-51.199219 51.203125 0 13.488281 5.441406 26.304687 14.617187 35.742187-17.511718 4.769532-33.941406 13-48.613281 24.464844-3.261719 2.550782-3.839843 7.265625-1.289062 10.527344 2.550781 3.265625 7.265625 3.84375 10.527343 1.292969 21.871094-17.09375 48.136719-26.132813 75.957032-26.132813 25.894531 0 50.34375 7.8125 71.207031 22.617188-17.445313 16.066406-28.394531 39.082031-28.394531 64.609375 0 18.746093 5.902344 36.136719 15.949218 50.417969h-182.214843v-14.1875c0-27.601563 8.910156-53.707032 25.769531-75.492188 2.535156-3.273438 1.9375-7.984375-1.339844-10.519531-3.273437-2.535157-7.984375-1.9375-10.519531 1.339843-18.914063 24.433594-28.914063 53.714844-28.914063 84.671876v21.667968.019532.019531 65.011719.019531.019531 45.574219c0 11.972656-4.507812 23.519531-12.695312 32.503906-5.871094 6.441406-10.484375 14.054687-13.507812 22.199219h-9.445313c-10.019531 0-18.171875 8.152344-18.171875 18.171875v23.394531c0 10.023438 8.152344 18.175781 18.171875 18.175781h38.425781c4.144532 0 7.5-3.359375 7.5-7.5 0-4.144531-3.355468-7.5-7.5-7.5h-38.425781c-1.75 0-3.171875-1.425781-3.171875-3.175781v-23.394531c0-1.75 1.421875-3.171875 3.171875-3.171875h348.210937c1.75 0 3.175782 1.421875 3.175782 3.171875v23.394531c0 1.75-1.425782 3.175781-3.175782 3.175781h-277.125c-4.144531 0-7.5 3.355469-7.5 7.5 0 4.140625 3.355469 7.5 7.5 7.5h37.335938c2.453125 6.191407 5.757812 12.007813 9.882812 17.320313 1.476563 1.902344 3.691407 2.898437 5.925782 2.898437 1.609375 0 3.230468-.515625 4.597656-1.578125 3.269531-2.539062 3.863281-7.25 1.320312-10.523437-1.992187-2.566407-3.746093-5.28125-5.25-8.117188h98.425782c-9.515625 18.035157-28.367188 29.667969-49.21875 29.667969-7.160156 0-14.148438-1.351562-20.773438-4.019531-3.84375-1.550781-8.210937.3125-9.757812 4.152343-1.546875 3.839844.3125 8.210938 4.152344 9.757813 8.414062 3.390625 17.289062 5.109375 26.378906 5.109375 29.082031 0 55.09375-17.824219 65.703125-44.667969h108.402343c10.023438 0 18.175782-8.152343 18.175782-18.175781v-23.394531c0-10.019531-8.152344-18.171875-18.175782-18.171875h-9.453124c-3.023438-8.148438-7.625-15.75-13.496094-22.195313-8.1875-8.988281-12.699219-20.535156-12.699219-32.503906v-45.578125c0-.007812 0-.011719 0-.019531 0-.003907 0-.011719 0-.019531v-35.457032c44.792969-3.964844 80.035156-41.6875 80.035156-87.492187zm-235.503906-101.199219c-11.695313-6.273438-19.1875-18.625-19.1875-31.921875 0-19.960937 16.238281-36.203125 36.199219-36.203125 19.960937 0 36.203125 16.242188 36.203125 36.203125 0 13.441406-7.363281 25.625-19.234375 31.953125-5.613282-.699219-11.277344-1.058594-16.96875-1.058594-5.734375 0-11.414063.347656-17.011719 1.027344zm147.664063 28.359375c40.164062 0 72.839843 32.675781 72.839843 72.839844 0 40.164062-32.675781 72.839843-72.839843 72.839843-40.167969 0-72.84375-32.675781-72.84375-72.839843 0-40.164063 32.675781-72.839844 72.84375-72.839844zm-58.558594 138.257813c13.878906 12.433593 31.714844 20.527343 51.363281 22.128906v27.921875h-246.910156v-50.050781zm67.972656 145.753906c3.304688 3.625 6.085938 7.71875 8.273438 12.09375h-296.683594c2.183594-4.378906 4.976562-8.472656 8.277344-12.09375 10.710937-11.757813 16.609374-26.890625 16.609374-42.605469v-38.097656h246.914063v38.097656c0 15.714844 5.898437 30.847656 16.609375 42.605469zm0 0"/><path d="m314.671875 166.726562 1.023437-.535156v41.140625h-3.960937c-4.144531 0-7.5 3.355469-7.5 7.5 0 4.140625 3.355469 7.5 7.5 7.5h22.921875c4.140625 0 7.5-3.359375 7.5-7.5 0-4.144531-3.359375-7.5-7.5-7.5h-3.960938v-53.511719c0-2.625-1.371093-5.054687-3.613281-6.414062-2.242187-1.359375-5.03125-1.449219-7.355469-.238281l-11.996093 6.257812c-3.671875 1.917969-5.09375 6.449219-3.179688 10.121094 1.914063 3.671875 6.445313 5.097656 10.121094 3.179687zm0 0"/></svg>