<svg height="512pt" viewBox="-65 0 512 512.004" width="512pt" xmlns="http://www.w3.org/2000/svg"><path d="m33.46875 414.199219v80.226562c0 5.5625 4.464844 10.074219 9.976562 10.074219h310.140626c11.019531 0 19.953124-9.023438 19.953124-20.148438v-70.152343zm0 0" fill="#eb5777"/><path d="m350.75 414.199219v70.148437c0 11.132813-8.929688 20.148438-19.953125 20.148438h22.785156c11.023438 0 19.953125-9.015625 19.953125-20.148438v-70.148437zm0 0" fill="#ce3f63"/><path d="m327.355469 478.671875h-283.863281c-5.535157 0-10.023438-4.488281-10.023438-10.027344v-48.046875h303.914062v48.046875c0 5.539063-4.488281 10.027344-10.027343 10.027344zm0 0" fill="#ebeef2"/><path d="m353.488281 446.226562h-309.996093c-5.535157 0-10.023438-4.488281-10.023438-10.027343v-418.675781c0-5.535157 4.488281-10.023438 10.023438-10.023438h309.996093c11.070313 0 20.046875 8.976562 20.046875 20.050781v398.625c0 11.074219-8.972656 20.050781-20.046875 20.050781zm0 0" fill="#ed7a98"/><path d="m373.535156 27.648438v398.425781c0 11.132812-8.929687 20.148437-19.953125 20.148437h-22.785156c11.023437 0 19.953125-9.015625 19.953125-20.148437v-398.425781c0-11.121094-8.929688-20.148438-19.953125-20.148438h22.785156c11.023438 0 19.953125 9.027344 19.953125 20.148438zm0 0" fill="#eb5777"/><path d="m91.613281 146.644531 35.582031-35.578125c3.757813-3.761718 9.855469-3.769531 13.621094 0l36.105469 36.105469c3.761719 3.757813 3.761719 9.863281 0 13.621094l-21.304687 21.304687c-3.441407 3.441406-3.800782 8.894532-.804688 12.722656 11.546875 14.746094 24.785156 29.730469 39.472656 44.417969 14.683594 14.683594 29.667969 27.925781 44.414063 39.46875 3.828125 3 9.285156 2.636719 12.722656-.800781l21.304687-21.308594c3.761719-3.757812 9.863282-3.757812 13.621094 0l36.109375 36.109375c3.765625 3.765625 3.757813 9.859375 0 13.621094l-35.582031 35.582031c-5.832031 5.828125-14.746094 7.347656-22.136719 3.664063-30.75-15.359375-66.570312-41.753907-100.804687-75.988281-34.234375-34.230469-60.625-70.050782-75.984375-100.804688-3.683594-7.386719-2.167969-16.304688 3.664062-22.136719zm0 0" fill="#bfe89e"/><path d="m312.695312 316.085938-49.726562-49.726563 9.761719-9.761719c3.757812-3.757812 9.859375-3.757812 13.621093 0l36.105469 36.109375c3.765625 3.765625 3.757813 9.859375 0 13.621094zm0 0" fill="#84b75b"/><path d="m117.433594 120.824219 9.761718-9.757813c3.757813-3.761718 9.855469-3.769531 13.621094 0l36.105469 36.105469c3.761719 3.757813 3.761719 9.863281 0 13.621094l-9.757813 9.761719zm0 0" fill="#84b75b"/><g fill="#d3d8df"><path d="m39.195312 72.613281h-16.386718c-8.453125 0-15.304688-6.851562-15.304688-15.308593 0-8.453126 6.851563-15.304688 15.304688-15.304688h16.386718c8.453126 0 15.308594 6.851562 15.308594 15.304688 0 8.457031-6.855468 15.308593-15.308594 15.308593zm0 0"/><path d="m39.195312 140.609375h-16.386718c-8.453125 0-15.304688-6.851563-15.304688-15.304687 0-8.457032 6.851563-15.308594 15.304688-15.308594h16.386718c8.453126 0 15.308594 6.851562 15.308594 15.308594 0 8.453124-6.855468 15.304687-15.308594 15.304687zm0 0"/><path d="m39.195312 208.605469h-16.386718c-8.453125 0-15.304688-6.851563-15.304688-15.304688s6.851563-15.308593 15.304688-15.308593h16.386718c8.453126 0 15.308594 6.851562 15.308594 15.308593 0 8.453125-6.855468 15.304688-15.308594 15.304688zm0 0"/><path d="m39.195312 276.605469h-16.386718c-8.453125 0-15.304688-6.855469-15.304688-15.308594s6.851563-15.308594 15.304688-15.308594h16.386718c8.453126 0 15.308594 6.855469 15.308594 15.308594s-6.855468 15.308594-15.308594 15.308594zm0 0"/><path d="m39.195312 344.601562h-16.386718c-8.453125 0-15.304688-6.855468-15.304688-15.308593s6.851563-15.308594 15.304688-15.308594h16.386718c8.453126 0 15.308594 6.855469 15.308594 15.308594s-6.855468 15.308593-15.308594 15.308593zm0 0"/><path d="m39.195312 412.597656h-16.386718c-8.453125 0-15.304688-6.851562-15.304688-15.308594 0-8.453124 6.851563-15.304687 15.304688-15.304687h16.386718c8.453126 0 15.308594 6.851563 15.308594 15.304687 0 8.457032-6.855468 15.308594-15.308594 15.308594zm0 0"/></g><path d="m353.488281 0h-68.636719c-4.144531 0-7.5 3.355469-7.5 7.5s3.355469 7.5 7.5 7.5h68.636719c6.917969 0 12.546875 5.628906 12.546875 12.550781v85.117188c0 4.144531 3.359375 7.5 7.5 7.5 4.144532 0 7.5-3.355469 7.5-7.5v-85.117188c.003906-15.191406-12.355468-27.550781-27.546875-27.550781zm0 0"/><path d="m373.539062 137.828125c-4.144531 0-7.5 3.359375-7.5 7.5v280.847656c0 6.921875-5.632812 12.550781-12.550781 12.550781h-199.636719c-4.144531 0-7.5 3.355469-7.5 7.5 0 4.144532 3.355469 7.5 7.5 7.5h176.03125v14.871094c0 1.417969-1.113281 2.570313-2.476562 2.570313h-283.960938c-1.367187 0-2.476562-1.152344-2.476562-2.570313v-15.074218c.828125.121093 1.664062.203124 2.523438.203124h77.695312c4.144531 0 7.5-3.355468 7.5-7.5 0-4.144531-3.355469-7.5-7.5-7.5h-77.695312c-1.390626 0-2.523438-1.132812-2.523438-2.523437v-16.179687c11.75-.910157 21.035156-10.753907 21.035156-22.734376 0-11.976562-9.285156-21.820312-21.035156-22.730468v-22.53125c11.75-.910156 21.035156-10.753906 21.035156-22.734375 0-11.976563-9.285156-21.820313-21.035156-22.730469v-22.53125c11.75-.910156 21.035156-10.753906 21.035156-22.734375 0-11.976563-9.285156-21.820313-21.035156-22.730469v-22.53125c11.75-.910156 21.035156-10.753906 21.035156-22.734375 0-11.976562-9.285156-21.824219-21.035156-22.730469v-22.535156c11.75-.90625 21.035156-10.75 21.035156-22.730468 0-11.976563-9.285156-21.824219-21.035156-22.730469v-22.535157c11.75-.910156 21.035156-10.753906 21.035156-22.730468 0-11.980469-9.285156-21.824219-21.035156-22.734375v-17.050781c0-1.390626 1.132812-2.523438 2.523438-2.523438h208.695312c4.144531 0 7.5-3.355469 7.5-7.5 0-4.140625-3.355469-7.5-7.5-7.5h-208.695312c-9.660157 0-17.523438 7.863281-17.523438 17.523438v16.976562h-3.160156c-12.574219 0-22.80468775 10.230469-22.80468775 22.808594s10.23046875 22.804687 22.80468775 22.804687h3.160156v22.382813h-3.160156c-12.574219 0-22.80468775 10.230468-22.80468775 22.808594 0 12.574218 10.23046875 22.804687 22.80468775 22.804687h3.160156v22.382813h-3.160156c-12.574219 0-22.80468775 10.230468-22.80468775 22.808593s10.23046875 22.808594 22.80468775 22.808594h3.160156v22.382813h-3.160156c-12.574219 0-22.80468775 10.230468-22.80468775 22.804687 0 12.578125 10.23046875 22.808594 22.80468775 22.808594h3.160156v22.382812h-3.160156c-12.574219 0-22.80468775 10.230469-22.80468775 22.808594s10.23046875 22.808594 22.80468775 22.808594h3.160156v22.382812h-3.160156c-12.574219 0-22.80468775 10.230469-22.80468775 22.804688 0 12.578125 10.23046875 22.808593 22.80468775 22.808593h3.160156v74.328126c0 9.691406 7.839844 17.574218 17.476562 17.574218h310.140626c15.136718 0 27.453124-12.402344 27.453124-27.648437v-339.027344c0-4.140625-3.359374-7.5-7.5-7.5zm-358.535156-80.519531c0-4.304688 3.5-7.808594 7.804688-7.808594h16.386718c4.304688 0 7.808594 3.503906 7.808594 7.808594 0 4.304687-3.503906 7.804687-7.808594 7.804687h-16.386718c-4.304688 0-7.804688-3.503906-7.804688-7.804687zm0 67.996094c0-4.304688 3.5-7.808594 7.804688-7.808594h16.386718c4.304688 0 7.808594 3.503906 7.808594 7.808594 0 4.304687-3.503906 7.804687-7.808594 7.804687h-16.386718c-4.304688 0-7.804688-3.503906-7.804688-7.804687zm0 67.996093c0-4.304687 3.5-7.808593 7.804688-7.808593h16.386718c4.304688 0 7.808594 3.503906 7.808594 7.808593 0 4.304688-3.503906 7.808594-7.808594 7.808594h-16.386718c-4.304688-.003906-7.804688-3.503906-7.804688-7.808594zm0 67.996094c0-4.304687 3.5-7.808594 7.804688-7.808594h16.386718c4.304688 0 7.808594 3.503907 7.808594 7.808594s-3.503906 7.808594-7.808594 7.808594h-16.386718c-4.304688 0-7.804688-3.503907-7.804688-7.808594zm0 67.996094c0-4.304688 3.5-7.808594 7.804688-7.808594h16.386718c4.304688 0 7.808594 3.503906 7.808594 7.808594 0 4.304687-3.503906 7.808593-7.808594 7.808593h-16.386718c-4.304688 0-7.804688-3.503906-7.804688-7.808593zm0 67.996093c0-4.304687 3.5-7.804687 7.804688-7.804687h16.386718c4.304688 0 7.808594 3.5 7.808594 7.804687 0 4.304688-3.503906 7.808594-7.808594 7.808594h-16.386718c-4.304688 0-7.804688-3.503906-7.804688-7.808594zm338.582032 99.710938h-310.140626c-1.367187 0-2.476562-1.152344-2.476562-2.574219v-8.453125c.808594.117188 1.632812.199219 2.476562.199219h283.960938c9.636719 0 17.476562-7.886719 17.476562-17.574219v-14.871094h8.605469c4.515625 0 8.78125-1.101562 12.546875-3.035156v33.660156c.003906 6.972657-5.582031 12.648438-12.449218 12.648438zm0 0"/><path d="m182.226562 166.097656c3.234376-3.234375 5.015626-7.539062 5.015626-12.117187 0-4.574219-1.78125-8.878907-5.015626-12.113281l-36.105468-36.105469c-6.683594-6.679688-17.550782-6.679688-24.230469 0l-35.582031 35.582031c-8.152344 8.152344-10.1875 20.523438-5.070313 30.789062 16.320313 32.679688 43.804688 69.171876 77.390625 102.757813 33.585938 33.585937 70.078125 61.070313 102.761719 77.394531 3.773437 1.878906 7.828125 2.796875 11.851563 2.796875 6.933593 0 13.777343-2.710937 18.9375-7.867187l35.578124-35.582032c6.683594-6.679687 6.683594-17.550781 0-24.230468l-36.105468-36.105469c-6.679688-6.679687-17.546875-6.679687-24.226563 0l-21.304687 21.304687c-.765625.765626-1.96875.851563-2.796875.203126-14.878907-11.648438-29.59375-24.726563-43.738281-38.871094-14.144532-14.144532-27.21875-28.859375-38.867188-43.734375-.648438-.828125-.5625-2.03125.203125-2.796875zm-46.714843-49.726562 36.109375 36.101562c.828125.832032.828125 2.1875 0 3.015625l-4.457032 4.457031-39.121093-39.121093 4.453125-4.453125c.832031-.832032 2.1875-.832032 3.015625 0zm144.027343 144.910156c.402344 0 .992188.105469 1.507813.621094l36.105469 36.105468c.832031.832032.832031 2.183594 0 3.015626l-4.457032 4.457031-39.121093-39.121094 4.457031-4.457031c.515625-.515625 1.105469-.621094 1.507812-.621094zm-90.558593-16.738281c14.570312 14.570312 29.742187 28.050781 45.097656 40.070312 6.792969 5.316407 16.53125 4.710938 22.648437-1.40625l6.242188-6.242187 39.121094 39.121094-20.515625 20.519531c-3.585938 3.582031-9.003907 4.492187-13.484375 2.257812-31.273438-15.621093-66.378906-42.105469-98.851563-74.578125-32.476562-32.476562-58.960937-67.582031-74.578125-98.851562-2.234375-4.480469-1.328125-9.898438 2.257813-13.484375l20.515625-20.515625 39.121094 39.121094-6.242188 6.238281c-6.117188 6.121093-6.722656 15.859375-1.402344 22.652343 12.015625 15.351563 25.5 30.523438 40.070313 45.097657zm0 0"/><path d="m240.398438 203.679688 7.972656-7.851563c2.949218-2.90625 2.984375-7.65625.078125-10.609375-2.90625-2.949219-7.65625-2.984375-10.605469-.078125l-7.972656 7.855469c-2.949219 2.902344-2.988282 7.652344-.078125 10.605468 1.464843 1.488282 3.402343 2.234376 5.34375 2.234376 1.898437 0 3.800781-.71875 5.261719-2.15625zm0 0"/><path d="m212.902344 190.167969c3.289062 0 6.308594-2.179688 7.226562-5.503907l2.976563-10.789062c1.101562-3.992188-1.242188-8.121094-5.234375-9.226562-3.992188-1.101563-8.125 1.242187-9.226563 5.234374l-2.976562 10.789063c-1.101563 3.992187 1.242187 8.121094 5.234375 9.222656.667968.1875 1.339844.273438 2 .273438zm0 0"/><path d="m248.582031 213.546875c-4.011719 1.042969-6.417969 5.136719-5.375 9.148437.878907 3.375 3.921875 5.613282 7.253907 5.613282.625 0 1.257812-.078125 1.890624-.242188l10.832032-2.816406c4.007812-1.039062 6.414062-5.132812 5.371094-9.144531-1.042969-4.007813-5.140626-6.410157-9.144532-5.371094zm0 0"/></svg>