<svg height="512pt" viewBox="0 -42 512 512" width="512pt" xmlns="http://www.w3.org/2000/svg"><g fill="#93a3af"><path d="m161 106.125v13h-79v-13c0-5.523438 4.476562-10 10-10h59c5.523438 0 10 4.476562 10 10zm0 0"/><path d="m252 410.125v-13h-39v13c0 5.523438 4.476562 10 10 10h19c5.523438 0 10-4.476562 10-10zm0 0"/><path d="m181 410.125v-13h-99v13c0 5.523438 4.476562 10 10 10h79c5.523438 0 10-4.476562 10-10zm0 0"/><path d="m314 410.125v-13h-39v13c0 5.523438 4.476562 10 10 10h19c5.523438 0 10-4.476562 10-10zm0 0"/></g><path d="m504.5 136.542969v243.160156c0 11.050781-8.949219 20-20 20h-457c-11.050781 0-20-8.949219-20-20v-243.160156c0-11.050781 8.949219-20 20-20h457c11.050781 0 20 8.949219 20 20zm0 0" fill="#d3d8df"/><path d="m504.5 136.542969v243.160156c0 11.050781-8.949219 20-20 20h-17.5c11.050781 0 20-8.949219 20-20v-243.160156c0-11.050781-8.949219-20-20-20h17.5c11.050781 0 20 8.949219 20 20zm0 0" fill="#c2c6cc"/><path d="m58 116.542969h396v283.160156h-396zm0 0" fill="#5f9eeb"/><path d="m437 116.542969h17v283.164062h-17zm0 0" fill="#3a82d0"/><path d="m365.300781 96.035156-39.011719 50.699219 1.761719 63.941406c.167969 6.199219-5.941406 10.628907-11.78125 8.558594l-60.269531-21.441406-60.269531 21.441406c-5.839844 2.070313-11.949219-2.359375-11.78125-8.558594l.351562-12.582031 1.410157-51.359375-39.011719-50.699219c-3.777344-4.910156-1.4375-12.089844 4.5-13.851562l61.359375-18.078125 36.160156-52.769531c3.511719-5.113282 11.050781-5.113282 14.5625 0l36.160156 52.769531 14.558594 4.289062 46.800781 13.789063c5.9375 1.761718 8.277344 8.941406 4.5 13.851562zm0 0" fill="#f1dd47"/><path d="m327.46875 189.425781.582031 21.25c.167969 6.199219-5.941406 10.628907-11.78125 8.558594l-13.730469-4.878906zm0 0" fill="#efc40f"/><path d="m365.300781 96.035156-39.011719 50.699219.359376 13.007813-46.597657 46.601562-24.050781-8.550781-60.269531 21.441406c-5.839844 2.070313-11.949219-2.359375-11.78125-8.558594l.351562-12.582031 129.699219-129.699219 46.800781 13.789063c5.9375 1.761718 8.277344 8.941406 4.5 13.851562zm0 0" fill="#efc40f"/><path d="m144.867188 295.296875-19.59375 6.96875c-1.902344.675781-3.886719-.769531-3.832032-2.785156l.574219-20.789063-12.683594-16.480468c-1.230469-1.597657-.46875-3.933594 1.464844-4.5l19.945313-5.882813 11.757812-17.152344c1.140625-1.664062 3.59375-1.664062 4.734375 0l11.757813 17.152344 19.949218 5.882813c1.933594.566406 2.691406 2.902343 1.460938 4.5l-12.679688 16.480468.570313 20.789063c.054687 2.015625-1.929688 3.460937-3.828125 2.785156zm0 0" fill="#f1dd47"/><path d="m256 334.800781-19.597656 6.96875c-1.898438.675781-3.882813-.765625-3.828125-2.785156l.570312-20.789063-12.679687-16.480468c-1.230469-1.597656-.472656-3.933594 1.460937-4.503906l19.949219-5.878907 11.757812-17.15625c1.140626-1.660156 3.59375-1.660156 4.734376 0l11.753906 17.15625 19.949218 5.878907c1.933594.570312 2.691407 2.90625 1.464844 4.503906l-12.683594 16.480468.574219 20.789063c.054688 2.015625-1.933593 3.460937-3.832031 2.785156zm0 0" fill="#f1dd47"/><path d="m367.132812 295.296875-19.597656 6.96875c-1.898437.675781-3.882812-.769531-3.828125-2.785156l.570313-20.789063-12.679688-16.480468c-1.230468-1.597657-.472656-3.933594 1.460938-4.5l19.949218-5.882813 11.757813-17.152344c1.140625-1.664062 3.59375-1.664062 4.734375 0l11.757812 17.152344 19.945313 5.882813c1.933594.566406 2.691406 2.902343 1.464844 4.5l-12.683594 16.480468.574219 20.789063c.054687 2.015625-1.929688 3.460937-3.832032 2.785156zm0 0" fill="#f1dd47"/><path d="m484.5 109.042969h-67.171875c-4.140625 0-7.5 3.355469-7.5 7.5s3.359375 7.5 7.5 7.5h29.171875v76.542969c0 4.144531 3.355469 7.5 7.5 7.5s7.5-3.355469 7.5-7.5v-76.542969h23c6.894531 0 12.5 5.605469 12.5 12.5v243.164062c0 6.890625-5.605469 12.5-12.5 12.5h-23v-153.789062c0-4.144531-3.355469-7.5-7.5-7.5s-7.5 3.355469-7.5 7.5v153.789062h-381v-268.164062h93.289062l19.351563 25.148437-1.6875 61.273438c-.144531 5.382812 2.367187 10.488281 6.722656 13.65625 4.359375 3.164062 9.992188 3.976562 15.066407 2.175781l57.757812-20.539063 57.757812 20.539063c1.777344.632813 3.628907.945313 5.46875.945313 3.402344 0 6.765626-1.066407 9.597657-3.121094 4.355469-3.167969 6.871093-8.269532 6.722656-13.65625l-1.6875-61.273438 19.351563-25.148437h31.460937c4.140625 0 7.5-3.355469 7.5-7.5 0-4.140625-3.359375-7.5-7.5-7.5h-19.921875l6.488281-8.433594c3.285157-4.269531 4.253907-9.878906 2.589844-15-1.664063-5.125-5.742187-9.09375-10.914063-10.617187l-58.792968-17.332032-34.652344-50.5625c-3.046875-4.445312-8.082031-7.097656-13.46875-7.097656s-10.421875 2.652344-13.46875 7.097656l-34.652344 50.5625-58.796875 17.332032c-5.167969 1.523437-9.246093 5.492187-10.910156 10.617187-.320313.992187-.542969 2-.667969 3.015625h-45.503906c-9.648438 0-17.5 7.851562-17.5 17.5v2.917969h-47c-15.164062 0-27.5 12.335937-27.5 27.5v170.9375c0 4.144531 3.359375 7.5 7.5 7.5s7.5-3.355469 7.5-7.5v-170.9375c0-6.894531 5.605469-12.5 12.5-12.5h23v268.164062h-23c-6.894531 0-12.5-5.609375-12.5-12.5v-39.5625c0-4.144531-3.359375-7.5-7.5-7.5s-7.5 3.355469-7.5 7.5v39.5625c0 15.160157 12.335938 27.5 27.5 27.5h47v2.917969c0 9.648438 7.851562 17.5 17.5 17.5h79c9.648438 0 17.5-7.851562 17.5-17.5v-2.917969h17v2.917969c0 9.648438 7.851562 17.5 17.5 17.5h19c9.648438 0 17.5-7.851562 17.5-17.5v-2.917969h8v2.917969c0 9.648438 7.851562 17.5 17.5 17.5h19c9.648438 0 17.5-7.851562 17.5-17.5v-2.917969h163c15.164062 0 27.5-12.339843 27.5-27.5v-243.164062c0-15.164063-12.335938-27.5-27.5-27.5zm-332.0625-18.800781c.144531-.441407.441406-.730469.886719-.859376l61.355469-18.085937c1.65625-.488281 3.089843-1.53125 4.066406-2.957031l36.160156-52.761719c.523438-.765625 1.664062-.765625 2.1875 0l36.160156 52.761719c.976563 1.425781 2.410156 2.46875 4.066406 2.957031l61.355469 18.085937c.441407.128907.742188.417969.886719.859376.140625.441406.070312.851562-.210938 1.21875l-39.007812 50.695312c-1.050781 1.367188-1.601562 3.054688-1.554688 4.78125l1.761719 63.941406c.011719.460938-.171875.835938-.546875 1.105469-.375.273437-.789062.332031-1.222656.179687l-60.269531-21.433593c-.8125-.289063-1.664063-.433594-2.515625-.433594-.847656 0-1.699219.144531-2.511719.433594l-60.265625 21.433593c-.4375.152344-.851562.09375-1.226562-.179687-.375-.269531-.558594-.644531-.546876-1.105469l1.757813-63.941406c.046875-1.726562-.5-3.414062-1.550781-4.78125l-39.007813-50.695312c-.28125-.367188-.347656-.777344-.207031-1.21875zm-62.9375 15.882812c0-1.378906 1.121094-2.5 2.5-2.5h51.082031l4.167969 5.417969h-57.75zm84 304c0 1.378906-1.121094 2.5-2.5 2.5h-79c-1.378906 0-2.5-1.121094-2.5-2.5v-2.917969h84zm71 0c0 1.378906-1.121094 2.5-2.5 2.5h-19c-1.378906 0-2.5-1.121094-2.5-2.5v-2.917969h24zm62 0c0 1.378906-1.121094 2.5-2.5 2.5h-19c-1.378906 0-2.5-1.121094-2.5-2.5v-2.917969h24zm0 0"/><path d="m34.332031 285.207031c4.144531 0 7.5-3.359375 7.5-7.5v-39.164062c0-4.144531-3.355469-7.5-7.5-7.5-4.140625 0-7.5 3.355469-7.5 7.5v39.164062c0 4.140625 3.359375 7.5 7.5 7.5zm0 0"/><path d="m187.988281 257.253906c-1.054687-3.253906-3.648437-5.773437-6.925781-6.738281l-17.390625-5.125-10.25-14.957031c-1.9375-2.820313-5.132813-4.507813-8.554687-4.507813-3.421876 0-6.617188 1.6875-8.554688 4.507813l-10.246094 14.957031-17.386718 5.125c-3.285157.964844-5.875 3.484375-6.933594 6.742187-1.058594 3.253907-.445313 6.816407 1.640625 9.527344l11.058593 14.367188-.5 18.125c-.09375 3.417968 1.503907 6.664062 4.269532 8.671875 1.796875 1.308593 3.933594 1.980469 6.09375 1.980469 1.167968 0 2.34375-.195313 3.476562-.601563l17.082032-6.070313 17.082031 6.070313c3.222656 1.148437 6.800781.632813 9.566406-1.378906 2.769531-2.011719 4.367187-5.253907 4.273437-8.675781l-.5-18.121094 11.054688-14.367188c2.089844-2.714844 2.703125-6.273437 1.644531-9.53125zm-26.210937 16.867188c-1.050782 1.367187-1.601563 3.054687-1.554688 4.777344l.386719 14.035156-13.226563-4.703125c-1.625-.578125-3.402343-.578125-5.027343 0l-13.226563 4.703125.382813-14.035156c.046875-1.722657-.5-3.410157-1.550781-4.777344l-8.5625-11.128906 13.46875-3.96875c1.652343-.488282 3.089843-1.53125 4.0625-2.957032l7.9375-11.582031 7.941406 11.582031c.972656 1.425782 2.410156 2.46875 4.0625 2.957032l13.46875 3.96875zm0 0"/><path d="m299.121094 296.761719c-1.058594-3.257813-3.648438-5.777344-6.929688-6.742188l-17.390625-5.125-10.25-14.957031c-1.933593-2.820312-5.128906-4.507812-8.550781-4.507812s-6.621094 1.6875-8.554688 4.507812l-10.25 14.957031-17.386718 5.125c-3.28125.964844-5.875 3.484375-6.933594 6.742188-1.058594 3.253906-.441406 6.816406 1.644531 9.527343l11.054688 14.367188-.5 18.121094c-.09375 3.421875 1.503906 6.664062 4.273437 8.675781 1.796875 1.308594 3.933594 1.980469 6.09375 1.980469 1.167969 0 2.34375-.195313 3.472656-.597656l17.085938-6.074219 17.082031 6.074219c3.222657 1.144531 6.800781.632812 9.570313-1.382813 2.769531-2.011719 4.363281-5.253906 4.269531-8.671875l-.496094-18.125 11.054688-14.367188c2.085937-2.710937 2.699219-6.273437 1.640625-9.527343zm-26.214844 16.863281c-1.050781 1.367188-1.597656 3.054688-1.550781 4.777344l.386719 14.035156-13.230469-4.703125c-1.625-.578125-3.402344-.578125-5.027344 0l-13.226563 4.703125.386719-14.035156c.046875-1.722656-.503906-3.410156-1.554687-4.777344l-8.5625-11.128906 13.46875-3.96875c1.652344-.488282 3.089844-1.53125 4.066406-2.957032l7.9375-11.578124 7.9375 11.578124c.976562 1.425782 2.410156 2.46875 4.066406 2.957032l13.464844 3.96875zm0 0"/><path d="m375.6875 230.433594c-1.933594-2.820313-5.132812-4.507813-8.554688-4.507813-3.421874 0-6.621093 1.6875-8.554687 4.507813l-10.25 14.957031-17.386719 5.125c-3.285156.964844-5.875 3.484375-6.933594 6.742187-1.058593 3.253907-.441406 6.816407 1.644532 9.527344l11.058594 14.367188-.5 18.121094c-.097657 3.421874 1.5 6.664062 4.269531 8.675781 1.796875 1.308593 3.933593 1.980469 6.09375 1.980469 1.167969 0 2.347656-.195313 3.476562-.601563l17.082031-6.070313 17.082032 6.070313c3.222656 1.148437 6.800781.632813 9.570312-1.378906 2.769532-2.011719 4.363282-5.253907 4.269532-8.675781l-.5-18.121094 11.058593-14.367188c2.085938-2.714844 2.699219-6.273437 1.644531-9.53125-1.058593-3.253906-3.648437-5.773437-6.929687-6.738281l-17.390625-5.128906zm8.351562 43.6875c-1.050781 1.367187-1.601562 3.054687-1.550781 4.777344l.386719 14.035156-13.230469-4.703125c-1.625-.578125-3.398437-.578125-5.023437 0l-13.230469 4.703125.386719-14.035156c.046875-1.722657-.5-3.410157-1.550782-4.777344l-8.566406-11.128906 13.46875-3.96875c1.65625-.488282 3.089844-1.53125 4.066406-2.957032l7.9375-11.582031 7.9375 11.582031c.976563 1.425782 2.410157 2.46875 4.066407 2.957032l13.46875 3.96875zm0 0"/></svg>