<svg height="511pt" viewBox="-41 1 511 511.999" width="511pt" xmlns="http://www.w3.org/2000/svg"><g fill="#93a3af"><path d="m322 161h-13v-79h13c5.523438 0 10 4.476562 10 10v59c0 5.523438-4.476562 10-10 10zm0 0"/><path d="m18 252h13v-39h-13c-5.523438 0-10 4.476562-10 10v19c0 5.523438 4.476562 10 10 10zm0 0"/><path d="m18 181h13v-99h-13c-5.523438 0-10 4.476562-10 10v79c0 5.523438 4.476562 10 10 10zm0 0"/><path d="m18 314h13v-39h-13c-5.523438 0-10 4.476562-10 10v19c0 5.523438 4.476562 10 10 10zm0 0"/></g><path d="m28.417969 484.5v-457c0-11.046875 8.953125-20 20-20h243.164062c11.042969 0 20 8.953125 20 20v457c0 11.046875-8.957031 20-20 20h-243.164062c-11.046875 0-20-8.953125-20-20zm0 0" fill="#7b8c98"/><path d="m311.578125 27.5v457c0 11.050781-8.949219 20-20 20h-19.578125c11.050781 0 20-8.949219 20-20v-457c0-11.050781-8.949219-20-20-20h19.578125c11.050781 0 20 8.949219 20 20zm0 0" fill="#627687"/><path d="m28.417969 58h283.164062v396h-283.164062zm0 0" fill="#a0d37d"/><path d="m292 58h19.582031v396h-19.582031zm0 0" fill="#84b75b"/><path d="m255.351562 195.683594h-170.703124c-7.816407 0-14.148438-6.332032-14.148438-14.148438v-22.703125c0-7.8125 6.332031-14.148437 14.148438-14.148437h170.703124c7.8125 0 14.148438 6.335937 14.148438 14.148437v22.703125c0 7.816406-6.335938 14.148438-14.148438 14.148438zm0 0" fill="#d3d8df"/><path d="m421 258.480469v68.347656c0 67.722656-44.511719 127.390625-109.421875 146.683594-64.910156-19.292969-109.417969-78.960938-109.417969-146.683594v-68.347656c0-4.089844 2.480469-7.761719 6.269532-9.28125l99.417968-39.96875c2.402344-.960938 5.070313-.960938 7.460938 0l99.421875 39.96875c2.039062.820312 3.6875 2.25 4.789062 4.050781.949219 1.539062 1.480469 3.339844 1.480469 5.230469zm0 0" fill="#ffcf64"/><path d="m395 268.519531v57.601563c0 28.058594-8.871094 54.777344-25.640625 77.257812-14.878906 19.949219-34.71875 34.882813-57.78125 43.582032-23.058594-8.699219-42.886719-23.632813-57.769531-43.582032-16.777344-22.480468-25.648438-49.199218-25.648438-77.257812v-57.601563l83.417969-33.539062zm0 0" fill="#7b8c98"/><path d="m395 268.519531v57.601563c0 28.058594-8.871094 54.777344-25.640625 77.257812-14.878906 19.949219-34.71875 34.882813-57.78125 43.582032v-211.980469zm0 0" fill="#627687"/><path d="m421 258.480469v64.167969l-74.492188 73.429687c-4.910156 4.84375-11.308593 7.261719-17.707031 7.261719-6.402343 0-12.800781-2.417969-17.722656-7.261719l-48.527344-47.839844c-3.941406-3.878906-3.980469-10.207031-.101562-14.148437l21.378906-21.691406c3.882813-3.9375 10.210937-3.976563 14.152344-.109376l30.820312 30.390626 90.71875-89.429688c.949219 1.539062 1.480469 3.339844 1.480469 5.230469zm0 0" fill="#74e2cd"/><path d="m150.417969 26.832031c-4.144531 0-7.5 3.359375-7.5 7.5 0 4.144531 3.355469 7.5 7.5 7.5h39.164062c4.140625 0 7.5-3.355469 7.5-7.5 0-4.140625-3.359375-7.5-7.5-7.5zm0 0"/><path d="m63 158.832031v22.703125c0 11.9375 9.710938 21.648438 21.648438 21.648438h170.703124c11.9375 0 21.648438-9.710938 21.648438-21.648438v-22.703125c0-11.9375-9.714844-21.648437-21.648438-21.648437h-170.703124c-11.9375 0-21.648438 9.710937-21.648438 21.648437zm15 0c0-3.667969 2.980469-6.648437 6.648438-6.648437h170.703124c3.664063 0 6.648438 2.980468 6.648438 6.648437v22.703125c0 3.664063-2.984375 6.648438-6.648438 6.648438h-170.703124c-3.667969 0-6.648438-2.984375-6.648438-6.648438zm0 0"/><path d="m104.824219 177.683594h.105469.070312c4.109375 0 7.460938-3.3125 7.5-7.429688.035156-4.144531-3.292969-7.53125-7.433594-7.570312h-.109375c-.023437 0-.046875 0-.070312 0-4.109375 0-7.460938 3.3125-7.496094 7.433594-.039063 4.140624 3.289063 7.527343 7.433594 7.566406zm0 0"/><path d="m132.933594 177.683594h.109375.066406c4.109375 0 7.460937-3.3125 7.5-7.429688.035156-4.144531-3.292969-7.53125-7.433594-7.570312h-.109375c-.023437 0-.046875 0-.066406 0-4.113281 0-7.464844 3.3125-7.5 7.433594-.039062 4.140624 3.289062 7.527343 7.433594 7.566406zm0 0"/><path d="m161.042969 177.683594h.109375.066406c4.109375 0 7.460938-3.3125 7.5-7.429688.035156-4.144531-3.292969-7.53125-7.433594-7.570312h-.109375c-.023437 0-.046875 0-.066406 0-4.113281 0-7.464844 3.3125-7.5 7.433594-.039063 4.140624 3.289063 7.527343 7.433594 7.566406zm0 0"/><path d="m189.152344 177.683594h.105468.070313c4.109375 0 7.460937-3.3125 7.5-7.429688.035156-4.144531-3.292969-7.53125-7.433594-7.570312h-.109375c-.023437 0-.046875 0-.070312 0-4.109375 0-7.460938 3.3125-7.496094 7.433594-.039062 4.140624 3.289062 7.527343 7.433594 7.566406zm0 0"/><path d="m217.261719 177.683594h.109375.066406c4.113281 0 7.464844-3.3125 7.5-7.433594.035156-4.140625-3.292969-7.527344-7.433594-7.566406h-.109375c-.023437 0-.046875 0-.066406 0-4.113281 0-7.464844 3.3125-7.5 7.433594-.035156 4.140624 3.292969 7.527343 7.433594 7.566406zm0 0"/><path d="m105 117.09375c4.140625 0 7.5-3.359375 7.5-7.5 0-4.144531-3.359375-7.5-7.5-7.5h-23.699219c-4.144531 0-7.5 3.355469-7.5 7.5 0 4.140625 3.355469 7.5 7.5 7.5zm0 0"/><path d="m173.582031 214.285156h-92.28125c-4.144531 0-7.5 3.355469-7.5 7.5 0 4.140625 3.355469 7.5 7.5 7.5h92.28125c4.140625 0 7.5-3.359375 7.5-7.5 0-4.144531-3.359375-7.5-7.5-7.5zm0 0"/><path d="m169.082031 243.28125c0-4.140625-3.359375-7.5-7.5-7.5h-80.28125c-4.144531 0-7.5 3.359375-7.5 7.5 0 4.144531 3.355469 7.5 7.5 7.5h80.28125c4.140625 0 7.5-3.355469 7.5-7.5zm0 0"/><path d="m150.417969 402.5h23.164062c4.140625 0 7.5-3.355469 7.5-7.5s-3.359375-7.5-7.5-7.5h-23.164062c-4.144531 0-7.5 3.355469-7.5 7.5s3.355469 7.5 7.5 7.5zm0 0"/><path d="m81.300781 402.5h46.140625c4.140625 0 7.5-3.355469 7.5-7.5s-3.359375-7.5-7.5-7.5h-46.140625c-4.144531 0-7.5 3.355469-7.5 7.5s3.355469 7.5 7.5 7.5zm0 0"/><path d="m81.300781 375.625h11.847657c4.144531 0 7.5-3.355469 7.5-7.5s-3.355469-7.5-7.5-7.5h-11.847657c-4.144531 0-7.5 3.355469-7.5 7.5s3.355469 7.5 7.5 7.5zm0 0"/><path d="m417.527344 242.238281-98.445313-39.578125v-34.160156h2.917969c9.648438 0 17.5-7.851562 17.5-17.5v-59c0-9.648438-7.851562-17.5-17.5-17.5h-2.917969v-47c0-15.164062-12.335937-27.5-27.5-27.5h-49.753906c-4.140625 0-7.5 3.355469-7.5 7.5s3.359375 7.5 7.5 7.5h49.753906c6.890625 0 12.5 5.605469 12.5 12.5v23h-268.164062v-23c0-6.894531 5.605469-12.5 12.5-12.5h160.75c4.144531 0 7.5-3.355469 7.5-7.5s-3.355469-7.5-7.5-7.5h-160.75c-15.164063 0-27.5 12.335938-27.5 27.5v47h-2.917969c-9.648438 0-17.5 7.851562-17.5 17.5v79c0 9.648438 7.851562 17.5 17.5 17.5h2.917969v17h-2.917969c-9.648438 0-17.5 7.851562-17.5 17.5v19c0 9.648438 7.851562 17.5 17.5 17.5h2.917969v8h-2.917969c-9.648438 0-17.5 7.851562-17.5 17.5v19c0 9.648438 7.851562 17.5 17.5 17.5h2.917969v38.171875c0 4.140625 3.355469 7.5 7.5 7.5 4.140625 0 7.5-3.359375 7.5-7.5v-294.171875h268.164062v137.160156l-98.445312 39.578125c-6.667969 2.679688-10.972657 9.054688-10.972657 16.238281v68.351563c0 34.855469 11.015626 68.046875 31.855469 95.984375 6.476563 8.683594 13.710938 16.597656 21.605469 23.6875h-212.207031v-54.171875c0-4.140625-3.359375-7.5-7.5-7.5-4.144531 0-7.5 3.359375-7.5 7.5v92.171875c0 15.160156 12.335937 27.5 27.5 27.5h243.164062c15.164063 0 27.5-12.339844 27.5-27.5v-5.507812c19.25-6.453126 36.867188-16.347657 52.425781-29.484376 3.164063-2.671874 3.5625-7.40625.894532-10.570312-2.675782-3.164062-7.40625-3.5625-10.570313-.890625-14.835937 12.527344-31.730469 21.8125-50.25 27.625-29.371093-9.214844-54.59375-27.097656-73.039062-51.828125-18.894531-25.324219-28.878907-55.414062-28.878907-87.015625v-68.351563c0-1.027343.613282-1.9375 1.566407-2.320312l99.417969-39.96875c.601562-.242188 1.265624-.242188 1.863281 0l95.125 38.242188-8.1875 8.074218c-.503907-.375-1.050781-.703125-1.652344-.945312l-83.417969-33.539063c-1.792968-.71875-3.800781-.71875-5.59375 0l-83.421875 33.539063c-2.839843 1.140625-4.699219 3.894531-4.699219 6.957031v57.601563c0 29.691406 9.378907 57.957031 27.128907 81.75 15.652343 20.980468 36.792969 36.921874 61.140625 46.109374 1.695312.640626 3.601562.640626 5.296875 0 24.347656-9.1875 45.488281-25.128906 61.136719-46.109374 12.03125-16.125 20.171874-34.148438 24.230468-53.585938l13.164063-12.980469c-2.71875 26.84375-12.925781 52.769531-29.425781 74.234375-2.527344 3.28125-1.910157 7.992188 1.371093 10.515625 3.285157 2.527344 7.996094 1.910157 10.519531-1.371093 21.457032-27.910157 33.273438-62.660157 33.273438-97.847657v-68.355469c0-7.183593-4.308594-13.558593-10.972656-16.238281zm-399.527344-68.738281c-1.378906 0-2.5-1.121094-2.5-2.5v-79c0-1.378906 1.121094-2.5 2.5-2.5h2.917969v84zm0 71c-1.378906 0-2.5-1.121094-2.5-2.5v-19c0-1.378906 1.121094-2.5 2.5-2.5h2.917969v24zm0 62c-1.378906 0-2.5-1.121094-2.5-2.5v-19c0-1.378906 1.121094-2.5 2.5-2.5h2.917969v24zm273.582031 190.5h-243.164062c-6.894531 0-12.5-5.605469-12.5-12.5v-23h230.914062c.277344 0 .550781-.015625.820313-.046875 11.253906 7.3125 23.460937 13.203125 36.429687 17.546875v5.5c0 6.894531-5.609375 12.5-12.5 12.5zm49.660157-106.261719c-3.335938 3.289063-7.753907 5.101563-12.441407 5.101563s-9.113281-1.8125-12.457031-5.101563l-48.53125-47.84375c-.980469-.964843-.988281-2.554687-.019531-3.539062l21.382812-21.695313c.96875-.980468 2.5625-.988281 3.539063-.027344l30.820312 30.386719c2.917969 2.878907 7.609375 2.878907 10.53125 0l79.433594-78.304687v49.796875zm-19.242188-301.238281c1.378906 0 2.5 1.121094 2.5 2.5v59c0 1.378906-1.121094 2.5-2.5 2.5h-2.917969v-64zm41.34375 309.398438c-13.359375 17.914062-31.214844 31.699218-51.761719 40.007812-20.550781-8.308594-38.402343-22.09375-51.765625-40.007812-15.800781-21.183594-24.152344-46.351563-24.152344-72.78125v-52.53125l75.917969-30.523438 75.917969 30.523438v.414062c0 .089844.007812.179688.011719.269531l-58.710938 57.878907-25.566406-25.210938c-6.882813-6.757812-17.984375-6.671875-24.746094.199219l-21.382812 21.691406c-6.773438 6.878906-6.691407 17.984375.179687 24.75l48.535156 47.847656c6.171876 6.070313 14.332032 9.414063 22.980469 9.414063 8.652344 0 16.8125-3.347656 22.976563-9.417969l24.496094-24.148437c-3.515626 7.554687-7.824219 14.785156-12.929688 21.625zm0 0"/></svg>