<svg height="512pt" viewBox="-49 0 512 512" width="512pt" xmlns="http://www.w3.org/2000/svg"><g fill="#93a3af"><path d="m321.5 161h-13v-79h13c5.523438 0 10 4.476562 10 10v59c0 5.523438-4.476562 10-10 10zm0 0"/><path d="m17.5 252h13v-39h-13c-5.523438 0-10 4.476562-10 10v19c0 5.523438 4.476562 10 10 10zm0 0"/><path d="m17.5 181h13v-99h-13c-5.523438 0-10 4.476562-10 10v79c0 5.523438 4.476562 10 10 10zm0 0"/><path d="m17.5 314h13v-39h-13c-5.523438 0-10 4.476562-10 10v19c0 5.523438 4.476562 10 10 10zm0 0"/></g><path d="m27.917969 484.5v-457c0-11.046875 8.953125-20 20-20h243.164062c11.046875 0 20 8.953125 20 20v457c0 11.046875-8.953125 20-20 20h-243.164062c-11.046875 0-20-8.953125-20-20zm0 0" fill="#7b8c98"/><path d="m311.078125 27.5v457c0 11.050781-8.949219 20-20 20h-19.578125c11.050781 0 20-8.949219 20-20v-457c0-11.050781-8.949219-20-20-20h19.578125c11.050781 0 20 8.949219 20 20zm0 0" fill="#627687"/><path d="m27.917969 58h283.164062v396h-283.164062zm0 0" fill="#ebeef2"/><path d="m291.5 58h19.582031v396h-19.582031zm0 0" fill="#d3d8df"/><path d="m393.816406 342.984375-74.757812 74.761719c-3.851563 3.847656-10.101563 3.847656-13.953125 0l-40.226563-40.230469-34.53125-34.53125c-6.210937-6.210937-1.8125-16.839844 6.96875-16.839844h17.210938v-99.847656c0-5.441406 4.410156-9.863281 9.859375-9.863281h95.390625c5.441406 0 9.859375 4.421875 9.859375 9.863281v99.847656h17.199219c8.792968 0 13.191406 10.628907 6.980468 16.839844zm0 0" fill="#74e2cd"/><path d="m393.816406 342.984375-74.757812 74.761719c-3.851563 3.847656-10.101563 3.847656-13.953125 0l-40.226563-40.230469 104.757813-104.761719v53.390625h17.199219c8.792968 0 13.191406 10.628907 6.980468 16.839844zm0 0" fill="#4fceb7"/><path d="m359.636719 194.351562h-95.109375c-5.523438 0-10-4.476562-10-10v-22.355468c0-5.519532 4.476562-10 10-10h95.109375c5.519531 0 10 4.480468 10 10v22.355468c0 5.523438-4.480469 10-10 10zm0 0" fill="#74e2cd"/><path d="m359.636719 131.378906h-95.109375c-5.523438 0-10-4.476562-10-10v-8.355468c0-5.519532 4.476562-10 10-10h95.109375c5.519531 0 10 4.480468 10 10v8.355468c0 5.523438-4.480469 10-10 10zm0 0" fill="#74e2cd"/><path d="m389.714844 481.5h-155.265625c-9.664063 0-17.5-7.835938-17.5-17.5v-38.5c0-5.523438 4.476562-10 10-10h15c5.523437 0 10 4.476562 10 10v21h120.265625v-21c0-5.523438 4.476562-10 10-10h15c5.519531 0 10 4.476562 10 10v38.5c0 9.664062-7.835938 17.5-17.5 17.5zm0 0" fill="#74e2cd"/><path d="m100.6875 15h116.339844c4.140625 0 7.5-3.355469 7.5-7.5s-3.359375-7.5-7.5-7.5h-116.339844c-4.140625 0-7.5 3.355469-7.5 7.5s3.355469 7.5 7.5 7.5zm0 0"/><path d="m149.917969 26.832031c-4.140625 0-7.5 3.359375-7.5 7.5 0 4.144531 3.359375 7.5 7.5 7.5h39.164062c4.140625 0 7.5-3.355469 7.5-7.5 0-4.140625-3.359375-7.5-7.5-7.5zm0 0"/><path d="m80.800781 117.09375h23.699219c4.140625 0 7.5-3.359375 7.5-7.5 0-4.144531-3.359375-7.5-7.5-7.5h-23.699219c-4.144531 0-7.5 3.355469-7.5 7.5 0 4.140625 3.355469 7.5 7.5 7.5zm0 0"/><path d="m173.082031 387.5h-23.164062c-4.140625 0-7.5 3.355469-7.5 7.5s3.359375 7.5 7.5 7.5h23.164062c4.140625 0 7.5-3.355469 7.5-7.5s-3.359375-7.5-7.5-7.5zm0 0"/><path d="m126.941406 387.5h-46.140625c-4.144531 0-7.5 3.355469-7.5 7.5s3.355469 7.5 7.5 7.5h46.140625c4.140625 0 7.5-3.355469 7.5-7.5s-3.359375-7.5-7.5-7.5zm0 0"/><path d="m80.800781 375.625h11.847657c4.140624 0 7.5-3.355469 7.5-7.5s-3.359376-7.5-7.5-7.5h-11.847657c-4.144531 0-7.5 3.355469-7.5 7.5s3.355469 7.5 7.5 7.5zm0 0"/><path d="m90.214844 265.039062h90.574218c10.59375 0 19.214844-8.617187 19.214844-19.210937v-49.804687c0-10.59375-8.621094-19.210938-19.214844-19.210938h-11.574218l-1.886719-9.0625c-1.839844-8.867188-9.753906-15.304688-18.808594-15.304688h-26.035156c-9.058594 0-16.96875 6.4375-18.8125 15.304688l-1.882813 9.0625h-11.574218c-10.597656 0-19.214844 8.621094-19.214844 19.214844v49.800781c.003906 10.59375 8.621094 19.210937 19.214844 19.210937zm-4.210938-69.015624c0-2.320313 1.886719-4.210938 4.210938-4.210938h17.675781c3.554687 0 6.621094-2.492188 7.34375-5.972656l3.125-15.039063c.40625-1.945312 2.140625-3.355469 4.125-3.355469h26.035156c1.984375 0 3.71875 1.410157 4.125 3.355469l3.125 15.039063c.722657 3.476562 3.789063 5.972656 7.339844 5.972656h17.679687c2.324219 0 4.210938 1.890625 4.210938 4.210938v49.804687c0 2.324219-1.890625 4.210937-4.210938 4.210937h-90.574218c-2.324219 0-4.210938-1.886718-4.210938-4.210937zm0 0"/><path d="m135.503906 238.285156c11.992188 0 21.75-9.757812 21.75-21.75 0-11.996094-9.757812-21.75-21.75-21.75-11.996094 0-21.75 9.753906-21.75 21.75 0 11.992188 9.753906 21.75 21.75 21.75zm0-28.5c3.71875 0 6.75 3.027344 6.75 6.75s-3.03125 6.75-6.75 6.75c-3.722656 0-6.75-3.027344-6.75-6.75s3.027344-6.75 6.75-6.75zm0 0"/><path d="m397.214844 408h-15c-9.652344 0-17.5 7.851562-17.5 17.5v13.5h-46.132813v-12.132812c2.101563-.84375 4.074219-2.117188 5.773438-3.820313l74.761719-74.761719c4.984374-4.980468 6.460937-12.40625 3.765624-18.921875-2.695312-6.507812-8.992187-10.714843-16.039062-10.714843h-9.707031v-42.320313c0-4.140625-3.359375-7.5-7.5-7.5-4.144531 0-7.5 3.359375-7.5 7.5v49.820313c0 4.140624 3.355469 7.5 7.5 7.5h17.207031c1.304688 0 1.90625.792968 2.179688 1.457031.277343.664062.414062 1.652343-.511719 2.574219l-74.757813 74.761718c-.925781.921875-2.421875.921875-3.34375 0l-74.761718-74.761718c-.921876-.921876-.785157-1.910157-.511719-2.574219.277343-.664063.878906-1.457031 2.183593-1.457031h17.207032c4.144531 0 7.5-3.359376 7.5-7.5v-99.851563c0-1.300781 1.058594-2.359375 2.363281-2.359375h95.382813c1.300781 0 2.363281 1.058594 2.363281 2.359375v17.371094c0 4.144531 3.355469 7.5 7.5 7.5 4.140625 0 7.5-3.355469 7.5-7.5v-17.371094c0-9.574219-7.789063-17.359375-17.363281-17.359375h-41.191407v-7.085938h41.054688c9.648437 0 17.5-7.851562 17.5-17.5v-22.355468c0-9.648438-7.851563-17.5-17.5-17.5h-20.636719v-5.617188h20.636719c9.648437 0 17.5-7.851562 17.5-17.5v-8.355468c0-9.648438-7.851563-17.5-17.5-17.5h-20.636719v-3.523438c0-9.648438-7.851562-17.5-17.5-17.5h-2.917969v-47c0-15.164062-12.335937-27.5-27.5-27.5h-41.394531c-4.140625 0-7.5 3.355469-7.5 7.5s3.359375 7.5 7.5 7.5h41.394531c6.894531 0 12.5 5.605469 12.5 12.5v23h-268.164062v-23c0-6.894531 5.605469-12.5 12.5-12.5h20.109375c4.140625 0 7.5-3.355469 7.5-7.5s-3.359375-7.5-7.5-7.5h-20.109375c-15.164063 0-27.5 12.335938-27.5 27.5v47h-2.917969c-9.648438 0-17.5 7.851562-17.5 17.5v79c0 9.648438 7.851562 17.5 17.5 17.5h2.917969v17h-2.917969c-9.648438 0-17.5 7.851562-17.5 17.5v19c0 9.648438 7.851562 17.5 17.5 17.5h2.917969v8h-2.917969c-9.648438 0-17.5 7.851562-17.5 17.5v19c0 9.648438 7.851562 17.5 17.5 17.5h2.917969v163c0 15.164062 12.335937 27.5 27.5 27.5h243.164062c13.628907 0 24.96875-9.96875 27.125-23h71.507813c13.785156 0 25-11.214844 25-25v-38.5c0-9.648438-7.851563-17.5-17.5-17.5zm-35.078125-246.003906v22.355468c0 1.378907-1.125 2.5-2.5 2.5h-95.109375c-1.378906 0-2.5-1.121093-2.5-2.5v-22.355468c0-1.378906 1.121094-2.5 2.5-2.5h95.109375c1.375 0 2.5 1.121094 2.5 2.5zm-38.136719-17.5h-5.417969v-5.617188h5.417969zm38.136719-31.472656v8.355468c0 1.378906-1.125 2.5-2.5 2.5h-95.109375c-1.378906 0-2.5-1.121094-2.5-2.5v-8.355468c0-1.378907 1.121094-2.5 2.5-2.5h95.109375c1.375 0 2.5 1.121093 2.5 2.5zm-40.636719-23.523438c1.378906 0 2.5 1.121094 2.5 2.5v3.523438h-5.417969v-6.023438zm-17.917969-24v30.023438h-39.054687c-9.648438 0-17.5 7.851562-17.5 17.5v8.355468c0 9.648438 7.851562 17.5 17.5 17.5h39.054687v5.617188h-39.054687c-9.648438 0-17.5 7.851562-17.5 17.5v22.355468c0 9.648438 7.851562 17.5 17.5 17.5h39.054687v7.082032h-39.191406c-9.574219 0-17.363281 7.789062-17.363281 17.363281v92.351563h-9.707032c-7.046874 0-13.34375 4.207031-16.039062 10.71875-2.699219 6.511718-1.21875 13.9375 3.761719 18.917968l74.761719 74.761719c1.148437 1.148437 2.425781 2.085937 3.777343 2.84375v13.109375h-44.132812v-13.5c0-9.648438-7.851563-17.5-17.5-17.5h-15c-9.648438 0-17.5 7.851562-17.5 17.5v21h-174.03125v-381zm-286.082031 108c-1.378906 0-2.5-1.121094-2.5-2.5v-79c0-1.378906 1.121094-2.5 2.5-2.5h2.917969v84zm0 71c-1.378906 0-2.5-1.121094-2.5-2.5v-19c0-1.378906 1.121094-2.5 2.5-2.5h2.917969v24zm0 62c-1.378906 0-2.5-1.121094-2.5-2.5v-19c0-1.378906 1.121094-2.5 2.5-2.5h2.917969v24zm273.582031 190.5h-243.164062c-6.894531 0-12.5-5.605469-12.5-12.5v-23h174.03125v2.5c0 13.785156 11.214843 25 25 25h68.28125c-1.8125 4.671875-6.34375 8-11.648438 8zm108.632813-33c0 5.515625-4.488282 10-10 10h-155.265625c-5.515625 0-10-4.484375-10-10v-38.5c0-1.378906 1.121093-2.5 2.5-2.5h15c1.378906 0 2.5 1.121094 2.5 2.5v21c0 4.144531 3.359375 7.5 7.5 7.5h120.265625c4.140625 0 7.5-3.355469 7.5-7.5v-21c0-1.378906 1.121094-2.5 2.5-2.5h15c1.375 0 2.5 1.121094 2.5 2.5zm0 0"/></svg>