<svg height="512pt" viewBox="-86 0 512 512" width="512pt" xmlns="http://www.w3.org/2000/svg"><g fill="#93a3af"><path d="m321.5 161h-13v-79h13c5.523438 0 10 4.476562 10 10v59c0 5.523438-4.476562 10-10 10zm0 0"/><path d="m17.5 252h13v-39h-13c-5.523438 0-10 4.476562-10 10v19c0 5.523438 4.476562 10 10 10zm0 0"/><path d="m17.5 181h13v-99h-13c-5.523438 0-10 4.476562-10 10v79c0 5.523438 4.476562 10 10 10zm0 0"/><path d="m17.5 314h13v-39h-13c-5.523438 0-10 4.476562-10 10v19c0 5.523438 4.476562 10 10 10zm0 0"/></g><path d="m27.917969 484.5v-457c0-11.046875 8.953125-20 20-20h243.164062c11.046875 0 20 8.953125 20 20v457c0 11.046875-8.953125 20-20 20h-243.164062c-11.046875 0-20-8.953125-20-20zm0 0" fill="#ed7a98"/><path d="m311.078125 27.5v457c0 11.050781-8.949219 20-20 20h-19.578125c11.050781 0 20-8.949219 20-20v-457c0-11.050781-8.949219-20-20-20h19.578125c11.050781 0 20 8.949219 20 20zm0 0" fill="#eb5777"/><path d="m27.917969 58h283.164062v396h-283.164062zm0 0" fill="#7fb7ea"/><path d="m291.5 58h19.582031v396h-19.582031zm0 0" fill="#5f9eeb"/><path d="m258.84375 179.175781c-17.414062-17.414062-45.648438-17.414062-63.0625 0l-14.46875 14.46875-14.472656-14.46875c-17.414063-17.414062-45.648438-17.414062-63.0625 0-17.414063 17.414063-17.414063 45.648438 0 63.0625l69.808594 69.808594c4.265624 4.265625 11.183593 4.265625 15.449218 0l69.808594-69.808594c17.417969-17.414062 17.417969-45.648437 0-63.0625zm0 0" fill="#eb5777"/><path d="m258.84375 242.242188-69.800781 69.800781c-4.269531 4.269531-11.191407 4.269531-15.460938 0l-4.480469-4.480469c.441407-.332031.871094-.691406 1.269532-1.089844l69.8125-69.8125c17.410156-17.417968 17.410156-45.648437 0-63.066406-2.960938-2.960938-6.230469-5.421875-9.710938-7.371094 10.339844.730469 20.460938 5.039063 28.371094 12.949219 17.417969 17.421875 17.417969 45.648437 0 63.070313zm0 0" fill="#ce3f63"/><path d="m154.910156 274.8125c-9.097656-9.09375-23.84375-9.09375-32.941406 0l-7.558594 7.558594-7.554687-7.558594c-9.097657-9.09375-23.84375-9.09375-32.941407 0-9.09375 9.097656-9.09375 23.84375 0 32.941406l36.464844 36.460938c2.226563 2.230468 5.839844 2.230468 8.066406 0l36.464844-36.460938c9.09375-9.097656 9.09375-23.84375 0-32.941406zm0 0" fill="#f1dd47"/><path d="m321.5 74.5h-2.917969v-47c0-15.164062-12.335937-27.5-27.5-27.5h-34.664062c-4.144531 0-7.5 3.359375-7.5 7.5s3.355469 7.5 7.5 7.5h34.664062c6.894531 0 12.5 5.605469 12.5 12.5v23h-268.164062v-23c0-6.894531 5.605469-12.5 12.5-12.5h175.839843c4.140626 0 7.5-3.359375 7.5-7.5s-3.359374-7.5-7.5-7.5h-175.839843c-15.164063 0-27.5 12.335938-27.5 27.5v47h-2.917969c-9.648438 0-17.5 7.851562-17.5 17.5v79c0 9.648438 7.851562 17.5 17.5 17.5h2.917969v17h-2.917969c-9.648438 0-17.5 7.851562-17.5 17.5v19c0 9.648438 7.851562 17.5 17.5 17.5h2.917969v8h-2.917969c-9.648438 0-17.5 7.851562-17.5 17.5v19c0 9.648438 7.851562 17.5 17.5 17.5h2.917969v163c0 15.164062 12.335937 27.5 27.5 27.5h243.164062c15.164063 0 27.5-12.335938 27.5-27.5v-82.964844c0-4.144531-3.355469-7.5-7.5-7.5s-7.5 3.355469-7.5 7.5v44.964844h-268.164062v-381h268.164062v303.371094c0 4.144531 3.355469 7.5 7.5 7.5s7.5-3.355469 7.5-7.5v-200.371094h2.917969c9.648438 0 17.5-7.851562 17.5-17.5v-59c0-9.648438-7.851562-17.5-17.5-17.5zm-304 99c-1.378906 0-2.5-1.121094-2.5-2.5v-79c0-1.378906 1.121094-2.5 2.5-2.5h2.917969v84zm0 71c-1.378906 0-2.5-1.121094-2.5-2.5v-19c0-1.378906 1.121094-2.5 2.5-2.5h2.917969v24zm0 62c-1.378906 0-2.5-1.121094-2.5-2.5v-19c0-1.378906 1.121094-2.5 2.5-2.5h2.917969v24zm286.082031 155v23c0 6.894531-5.605469 12.5-12.5 12.5h-243.164062c-6.894531 0-12.5-5.605469-12.5-12.5v-23zm20.417969-310.5c0 1.378906-1.121094 2.5-2.5 2.5h-2.917969v-64h2.917969c1.378906 0 2.5 1.121094 2.5 2.5zm0 0"/><path d="m149.917969 26.832031c-4.140625 0-7.5 3.359375-7.5 7.5 0 4.144531 3.359375 7.5 7.5 7.5h39.164062c4.144531 0 7.5-3.355469 7.5-7.5 0-4.140625-3.355469-7.5-7.5-7.5zm0 0"/><path d="m196.875 384.65625c0-4.144531-3.359375-7.5-7.5-7.5h-39.75c-4.140625 0-7.5 3.355469-7.5 7.5 0 4.140625 3.359375 7.5 7.5 7.5h39.75c4.140625 0 7.5-3.359375 7.5-7.5zm0 0"/><path d="m164.625 397.5c-4.140625 0-7.5 3.359375-7.5 7.5s3.359375 7.5 7.5 7.5h9.75c4.140625 0 7.5-3.359375 7.5-7.5s-3.359375-7.5-7.5-7.5zm0 0"/><path d="m264.148438 173.871094c-9.839844-9.839844-22.921876-15.257813-36.835938-15.257813s-26.996094 5.417969-36.832031 15.257813l-9.167969 9.167968-9.167969-9.167968c-20.3125-20.3125-53.359375-20.3125-73.671875 0-20.308594 20.3125-20.308594 53.359375 0 73.667968l20.167969 20.171876c-.675781.566406-1.335937 1.164062-1.972656 1.800781l-2.257813 2.253906-2.253906-2.253906c-12.003906-12.007813-31.539062-12.007813-43.542969 0-12.007812 12.003906-12.007812 31.539062 0 43.542969l36.460938 36.460937c2.574219 2.578125 5.957031 3.863281 9.335937 3.863281 3.382813 0 6.765625-1.285156 9.339844-3.863281l36.460938-36.460937c.636718-.636719 1.234374-1.296876 1.804687-1.976563l6.265625 6.269531c3.59375 3.59375 8.3125 5.390625 13.03125 5.390625s9.4375-1.796875 13.027344-5.390625l22.398437-22.394531c2.925781-2.929687 2.925781-7.679687 0-10.605469-2.929687-2.929687-7.679687-2.929687-10.609375 0l-22.394531 22.394532c-.871094.875-1.890625 1.003906-2.421875 1.003906s-1.550781-.128906-2.421875-1.003906l-10.140625-10.140626c1.660156-9.546874-1.179688-19.734374-8.539062-27.089843-7.355469-7.359375-17.542969-10.199219-27.089844-8.539063l-24.039063-24.039062c-14.464843-14.460938-14.464843-37.996094 0-52.457032 7.003907-7.003906 16.320313-10.863281 26.226563-10.863281 9.910156 0 19.222656 3.859375 26.230468 10.863281l14.46875 14.46875c2.929688 2.929688 7.679688 2.933594 10.605469 0l14.472657-14.46875c7.007812-7.003906 16.320312-10.863281 26.226562-10.863281 9.910156 0 19.222656 3.859375 26.230469 10.863281 14.460937 14.460938 14.460937 37.996094 0 52.457032l-24.316407 24.316406c-2.929687 2.929688-2.929687 7.679688 0 10.605469 2.925782 2.929687 7.675782 2.929687 10.605469 0l24.316407-24.316407c20.3125-20.308593 20.3125-53.355468 0-73.667968zm-114.542969 106.246094c6.15625 6.15625 6.15625 16.175781 0 22.332031l-35.195313 35.191406-35.191406-35.191406c-6.15625-6.15625-6.15625-16.175781 0-22.332031 3.078125-3.078126 7.121094-4.617188 11.164062-4.617188 4.042969 0 8.089844 1.539062 11.167969 4.617188l7.558594 7.558593c2.929687 2.929688 7.675781 2.929688 10.605469 0l7.558594-7.558593c6.15625-6.15625 16.175781-6.15625 22.332031 0zm0 0"/><path d="m255.269531 309.546875h.078125c4.105469 0 7.457032-3.3125 7.496094-7.429687l.03125-3.066407c.039062-4.140625-3.285156-7.53125-7.425781-7.574219-4.171875-.046874-7.535157 3.285157-7.574219 7.425782l-.03125 3.066406c-.039062 4.144531 3.285156 7.535156 7.425781 7.578125zm0 0"/><path d="m255.015625 339.015625h.074219c4.105468 0 7.457031-3.3125 7.496094-7.429687l.03125-3.066407c.039062-4.140625-3.289063-7.53125-7.429688-7.570312-.023438 0-.046875 0-.074219 0-4.105469 0-7.457031 3.308593-7.496093 7.425781l-.03125 3.070312c-.039063 4.140626 3.285156 7.53125 7.429687 7.570313zm0 0"/><path d="m268.355469 322.859375 3.070312.03125h.074219c4.109375 0 7.457031-3.3125 7.5-7.425781.039062-4.144532-3.285156-7.535156-7.425781-7.574219l-3.070313-.03125c-.023437 0-.050781 0-.074218 0-4.109376 0-7.457032 3.3125-7.5 7.425781-.039063 4.144532 3.285156 7.535156 7.425781 7.574219zm0 0"/><path d="m242.105469 307.632812-3.070313-.03125c-4.128906-.035156-7.53125 3.285157-7.574218 7.425782-.039063 4.140625 3.285156 7.53125 7.425781 7.574218l3.070312.03125h.074219c4.109375 0 7.457031-3.3125 7.5-7.429687.039062-4.140625-3.285156-7.53125-7.425781-7.570313zm0 0"/><path d="m180.519531 103.730469c-4.109375-.023438-7.535156 3.285156-7.574219 7.425781l-.03125 3.066406c-.039062 4.144532 3.285157 7.535156 7.425782 7.574219h.074218c4.109376 0 7.457032-3.308594 7.5-7.425781l.03125-3.066406c.039063-4.140626-3.285156-7.53125-7.425781-7.574219zm0 0"/><path d="m180.257812 133.199219c-.023437 0-.050781 0-.074218 0-4.109375 0-7.457032 3.3125-7.5 7.429687l-.03125 3.066406c-.039063 4.140626 3.285156 7.53125 7.425781 7.574219h.078125c4.105469 0 7.457031-3.308593 7.496094-7.425781l.03125-3.070312c.039062-4.140626-3.285156-7.53125-7.425782-7.574219zm0 0"/><path d="m193.425781 135.113281 3.066407.03125h.078124c4.105469 0 7.457032-3.308593 7.496094-7.425781.039063-4.144531-3.285156-7.535156-7.425781-7.574219l-3.070313-.03125c-4.125-.035156-7.53125 3.285157-7.570312 7.429688-.039062 4.140625 3.285156 7.53125 7.425781 7.570312zm0 0"/><path d="m167.171875 119.886719-3.070313-.03125c-4.101562-.042969-7.53125 3.285156-7.570312 7.425781-.042969 4.144531 3.285156 7.535156 7.425781 7.574219l3.066407.03125h.074218c4.109375 0 7.460938-3.3125 7.5-7.429688.039063-4.140625-3.285156-7.53125-7.425781-7.570312zm0 0"/></svg>