<svg height="512pt" viewBox="-31 0 512 512" width="512pt" xmlns="http://www.w3.org/2000/svg"><path d="m390.15625 504.5h-330.585938c-17.550781 0-27.484374-20.09375-16.871093-34.070312 15.664062-20.625 34.738281-38.503907 56.402343-52.808594 36.074219-23.804688 79.296876-37.664063 125.761719-37.664063 46.46875 0 89.6875 13.859375 125.761719 37.664063 21.664062 14.304687 40.742188 32.183594 56.402344 52.808594 10.617187 13.976562.679687 34.070312-16.871094 34.070312zm0 0" fill="#93a3af"/><path d="m350.625 417.625c-37.058594 24.292969-80.410156 37.324219-125.761719 37.324219-45.351562 0-88.703125-13.03125-125.761719-37.324219 36.074219-23.808594 79.296876-37.667969 125.761719-37.667969 46.46875 0 89.6875 13.859375 125.761719 37.667969zm0 0" fill="#7b8c98"/><path d="m442.226562 224.863281c0 120.046875-97.316406 217.363281-217.363281 217.363281s-217.363281-97.316406-217.363281-217.363281 97.316406-217.363281 217.363281-217.363281 217.363281 97.316406 217.363281 217.363281zm0 0" fill="#ebeef2"/><path d="m442.234375 224.867188c0 120.046874-97.324219 217.355468-217.371094 217.355468-4.089843 0-8.152343-.113281-12.191406-.335937 114.371094-6.320313 205.171875-101.066407 205.171875-217.019531 0-115.953126-90.800781-210.710938-205.171875-217.03125 4.039063-.222657 8.101563-.335938 12.191406-.335938 120.046875-.003906 217.371094 97.320312 217.371094 217.367188zm0 0" fill="#d3d8df"/><path d="m410.335938 111.476562-15.660157 15.664063-9.894531 9.890625c-12.109375 12.109375-31.75 12.109375-43.859375 0-12.117187-12.109375-12.117187-31.746094 0-43.855469l17.574219-17.570312 12.054687-12.058594c15.4375 13.957031 28.875 30.097656 39.785157 47.929687zm0 0" fill="#b7c1c6"/><path d="m410.335938 111.476562-15.660157 15.664063c-9.535156-18.929687-21.761719-36.277344-36.183593-51.535156l12.058593-12.058594c15.4375 13.957031 28.875 30.097656 39.785157 47.929687zm0 0" fill="#93a3af"/><path d="m108.804688 137.035156c-12.109376 12.109375-31.75 12.109375-43.855469 0l-25.558594-25.554687c10.914063-17.835938 24.347656-33.976563 39.785156-47.929688l29.628907 29.625c12.121093 12.113281 12.121093 31.75 0 43.859375zm0 0" fill="#b7c1c6"/><path d="m242.894531 88.75c0 9.960938-8.074219 18.03125-18.03125 18.03125s-18.03125-8.070312-18.03125-18.03125c0-9.957031 8.074219-18.027344 18.03125-18.027344s18.03125 8.070313 18.03125 18.027344zm0 0" fill="#eb5777"/><path d="m350.707031 266.523438c0 69.503906-56.339843 125.84375-125.84375 125.84375-69.5 0-125.84375-56.339844-125.84375-125.84375 0-69.5 56.34375-125.84375 125.84375-125.84375 69.503907 0 125.84375 56.34375 125.84375 125.84375zm0 0" fill="#455e6d"/><path d="m324.40625 266.523438c0 54.980468-44.566406 99.539062-99.539062 99.539062-13.351563 0-26.101563-2.636719-37.734376-7.398438-12.0625-4.953124-22.941406-12.195312-32.085937-21.195312-2.824219-2.769531-5.476563-5.714844-7.9375-8.808594-6.050781-7.53125-11.003906-15.964844-14.660156-25.0625-4.601563-11.453125-7.128907-23.972656-7.128907-37.074218 0-54.972657 44.566407-99.539063 99.546876-99.539063 13.101562 0 25.613281 2.527344 37.066406 7.128906 9.09375 3.65625 17.519531 8.609375 25.0625 14.648438 3.089844 2.460937 6.039062 5.125 8.816406 7.949219 9 9.144531 16.242188 20.023437 21.1875 32.085937 4.773438 11.632813 7.40625 24.375 7.40625 37.726563zm0 0" fill="#7b8c98"/><path d="m286.996094 188.761719-139.886719 139.898437c-6.050781-7.53125-11.003906-15.964844-14.523437-24.925781l129.484374-129.484375c8.957032 3.519531 17.386719 8.472656 24.925782 14.511719zm0 0" fill="#93a3af"/><path d="m317.136719 228.933594-129.867188 129.867187c-12.0625-4.953125-22.941406-12.195312-32.085937-21.195312l140.765625-140.757813c9 9.144532 16.242187 20.023438 21.1875 32.085938zm0 0" fill="#93a3af"/><path d="m383.867188 65.859375c-42.472657-42.46875-98.941407-65.859375-159.003907-65.859375-25.226562 0-50.019531 4.160156-73.6875 12.367188-3.914062 1.359374-5.988281 5.632812-4.628906 9.546874 1.355469 3.914063 5.625 5.984376 9.542969 4.628907 22.085937-7.660157 45.226562-11.542969 68.773437-11.542969 51.195313 0 98.160157 18.433594 134.625 49.003906l-23.871093 23.867188c-7.273438 7.277344-11.28125 16.949218-11.28125 27.234375 0 10.289062 4.007812 19.960937 11.28125 27.234375 7.273437 7.273437 16.945312 11.28125 27.234374 11.28125 10.285157 0 19.957032-4.007813 27.234376-11.28125l18.613281-18.613282c10 18.105469 17.410156 37.828126 21.710937 58.679688-18.660156 25.542969-43.972656 47.460938-73.734375 63.878906-9.78125-63.957031-65.164062-113.105468-131.8125-113.105468-66.644531 0-122.027343 49.148437-131.8125 113.101562-29.769531-16.425781-55.070312-38.328125-73.742187-63.886719 4.257812-20.710937 11.589844-40.492187 21.636718-58.75l18.695313 18.695313c7.511719 7.507812 17.371094 11.261718 27.234375 11.261718s19.730469-3.753906 27.234375-11.261718c7.277344-7.273438 11.28125-16.945313 11.28125-27.234375 0-10.285157-4.003906-19.957031-11.28125-27.234375l-23.964844-23.964844c11.253907-9.402344 23.59375-17.722656 36.910157-24.75 3.664062-1.933594 5.0625-6.472656 3.132812-10.136719-1.933594-3.660156-6.46875-5.0625-10.136719-3.128906-74.050781 39.082031-120.050781 115.328125-120.050781 198.972656 0 60.0625 23.390625 116.53125 65.859375 159.003907 9.726563 9.726562 20.195313 18.4375 31.265625 26.113281-23.269531 14.980469-43.566406 33.75-60.398438 55.917969-6.652343 8.757812-7.75 20.316406-2.859374 30.164062 4.878906 9.832031 14.726562 15.9375 25.707031 15.9375h42.960937c4.144532 0 7.5-3.355469 7.5-7.5s-3.355468-7.5-7.5-7.5h-42.964844c-5.316406 0-9.90625-2.84375-12.269531-7.605469-2.371093-4.777343-1.859375-10.171875 1.371094-14.425781 17.167969-22.609375 38.179687-41.449219 62.449219-56.035156 34.125 20.074218 73.105468 30.792968 113.742187 30.792968 36.257813 0 72.285157-8.835937 104.191407-25.550781 3.203124-1.679687 6.355468-3.457031 9.472656-5.289062 24.304687 14.59375 45.339844 33.449219 62.527344 56.082031 3.230468 4.253906 3.742187 9.648438 1.371093 14.425781-2.363281 4.761719-6.949219 7.605469-12.269531 7.605469h-254.960938c-4.140624 0-7.5 3.355469-7.5 7.5s3.359376 7.5 7.5 7.5h254.960938c10.980469 0 20.828125-6.105469 25.707031-15.9375 4.886719-9.847656 3.789063-21.40625-2.859375-30.164062-16.847656-22.1875-37.164062-40.96875-60.460937-55.957032 21.15625-14.648437 39.859375-32.921875 54.914062-53.828125 2.417969-3.359375 1.65625-8.046875-1.703125-10.46875-3.363281-2.417969-8.050781-1.65625-10.472656 1.703125-19.058594 26.46875-44.363281 48.441406-73.183594 63.539063-29.769531 15.597656-63.394531 23.839843-97.234375 23.839843-115.71875 0-209.863281-94.144531-209.863281-209.863281 0-7.46875.394531-14.871093 1.167969-22.1875 20.105469 24.003907 45.835937 44.449219 75.417969 59.832031-.039063 1.335938-.066407 2.675782-.066407 4.019532 0 73.523437 59.816407 133.34375 133.34375 133.34375 73.527344 0 133.34375-59.816406 133.34375-133.34375 0-1.34375-.023437-2.679688-.0625-4.011719 29.566407-15.371094 55.3125-35.824219 75.414063-59.8125.765625 7.285156 1.167968 14.675781 1.167968 22.164063 0 33.332031-7.589843 65.210937-22.5625 94.746093-1.871093 3.691407-.394531 8.207031 3.300782 10.078125 1.085937.550782 2.242187.8125 3.382812.8125 2.738282 0 5.375-1.5 6.695313-4.109375 16.046875-31.65625 24.183593-65.816406 24.183593-101.527343 0-60.066407-23.386718-116.535157-65.859374-159.007813zm-304.894532 8.089844 24.53125 24.53125c4.441406 4.441406 6.890625 10.347656 6.890625 16.625 0 6.28125-2.445312 12.1875-6.890625 16.628906-9.167968 9.167969-24.085937 9.167969-33.253906 0l-21.355469-21.355469c8.578125-13.183594 18.660157-25.410156 30.078125-36.429687zm145.890625 310.917969c-65.253906 0-118.34375-53.085938-118.34375-118.34375 0-65.253907 53.089844-118.34375 118.34375-118.34375 65.257813 0 118.34375 53.089843 118.34375 118.34375 0 65.257812-53.085937 118.34375-118.34375 118.34375zm154.613281-253.132813c-4.441406 4.441406-10.34375 6.886719-16.625 6.886719s-12.1875-2.445313-16.628906-6.886719-6.886718-10.347656-6.886718-16.628906 2.445312-12.1875 6.886718-16.625l24.425782-24.425781c11.332031 10.957031 21.433593 23.175781 30.082031 36.425781zm0 0"/><path d="m250.394531 88.75c0-14.074219-11.453125-25.527344-25.53125-25.527344s-25.527343 11.453125-25.527343 25.527344c0 14.078125 11.449218 25.53125 25.527343 25.53125s25.53125-11.453125 25.53125-25.53125zm-36.058593 0c0-5.804688 4.722656-10.527344 10.527343-10.527344 5.808594 0 10.53125 4.722656 10.53125 10.527344 0 5.808594-4.726562 10.53125-10.53125 10.53125-5.804687 0-10.527343-4.722656-10.527343-10.53125zm0 0"/><path d="m224.863281 159.488281c-59.019531 0-107.039062 48.015625-107.039062 107.035157 0 59.023437 48.019531 107.039062 107.039062 107.039062 59.023438 0 107.039063-48.015625 107.039063-107.039062 0-59.019532-48.015625-107.035157-107.039063-107.035157zm0 199.074219c-50.75 0-92.039062-41.285156-92.039062-92.035156s41.289062-92.039063 92.039062-92.039063 92.039063 41.289063 92.039063 92.039063-41.289063 92.035156-92.039063 92.035156zm0 0"/><path d="m339.363281 482.890625h.0625c4.113281 0 7.464844-3.316406 7.5-7.4375.035157-4.140625-3.292969-7.527344-7.4375-7.5625h-.113281c-4.148438-.03125-7.53125 3.292969-7.5625 7.4375-.035156 4.140625 3.292969 7.527344 7.433594 7.5625zm0 0"/><path d="m317.128906 482.890625h.066406c4.109376 0 7.464844-3.316406 7.5-7.4375.035157-4.140625-3.296874-7.527344-7.4375-7.5625h-.117187c-.019531 0-.042969 0-.0625 0-4.113281 0-7.464844 3.316406-7.5 7.4375-.035156 4.140625 3.296875 7.527344 7.4375 7.5625zm0 0"/><path d="m294.898438 482.890625h.0625c4.113281 0 7.464843-3.316406 7.5-7.4375.035156-4.140625-3.296876-7.527344-7.4375-7.5625h-.117188c-.019531 0-.042969 0-.0625 0-4.113281 0-7.464844 3.316406-7.5 7.4375-.035156 4.140625 3.296875 7.527344 7.4375 7.5625zm0 0"/></svg>