<svg height="512pt" viewBox="-86 0 512 512" width="512pt" xmlns="http://www.w3.org/2000/svg"><g fill="#93a3af"><path d="m321.5 161h-13v-79h13c5.523438 0 10 4.476562 10 10v59c0 5.523438-4.476562 10-10 10zm0 0"/><path d="m17.5 252h13v-39h-13c-5.523438 0-10 4.476562-10 10v19c0 5.523438 4.476562 10 10 10zm0 0"/><path d="m17.5 181h13v-99h-13c-5.523438 0-10 4.476562-10 10v79c0 5.523438 4.476562 10 10 10zm0 0"/><path d="m17.5 314h13v-39h-13c-5.523438 0-10 4.476562-10 10v19c0 5.523438 4.476562 10 10 10zm0 0"/></g><path d="m27.917969 484.5v-457c0-11.046875 8.953125-20 20-20h243.164062c11.046875 0 20 8.953125 20 20v457c0 11.046875-8.953125 20-20 20h-243.164062c-11.046875 0-20-8.953125-20-20zm0 0" fill="#7b8c98"/><path d="m311.078125 27.5v457c0 11.050781-8.949219 20-20 20h-19.578125c11.050781 0 20-8.949219 20-20v-457c0-11.050781-8.949219-20-20-20h19.578125c11.050781 0 20 8.949219 20 20zm0 0" fill="#627687"/><path d="m27.917969 58h283.164062v396h-283.164062zm0 0" fill="#a0d37d"/><path d="m291.5 58h19.582031v396h-19.582031zm0 0" fill="#84b75b"/><path d="m27.917969 224.863281h283.164062v229.136719h-283.164062zm0 0" fill="#faaa3c"/><path d="m291.5 224.863281h19.582031v229.136719h-19.582031zm0 0" fill="#e79732"/><path d="m27.917969 372.523438h283.164062v81.476562h-283.164062zm0 0" fill="#eb5777"/><path d="m291.5 372.523438h19.582031v81.476562h-19.582031zm0 0" fill="#ce3f63"/><path d="m234.144531 256h-30.566406c-3.3125 0-6-2.6875-6-6v-149.273438c0-6.289062-8.449219-8.339843-11.332031-2.75l-76.972656 149.273438c-2.058594 3.992188.839843 8.75 5.332031 8.75h30.566406c3.3125 0 6 2.6875 6 6v149.273438c0 6.289062 8.449219 8.339843 11.332031 2.75l76.972656-149.273438c2.058594-3.992188-.839843-8.75-5.332031-8.75zm0 0" fill="#ffeb9b"/><path d="m321.5 74.5h-2.917969v-47c0-15.164062-12.335937-27.5-27.5-27.5h-176.253906c-4.140625 0-7.5 3.355469-7.5 7.5s3.359375 7.5 7.5 7.5h176.253906c6.894531 0 12.5 5.605469 12.5 12.5v23h-268.164062v-23c0-6.894531 5.605469-12.5 12.5-12.5h34.253906c4.140625 0 7.5-3.355469 7.5-7.5s-3.359375-7.5-7.5-7.5h-34.253906c-15.164063 0-27.5 12.335938-27.5 27.5v47h-2.917969c-9.648438 0-17.5 7.851562-17.5 17.5v79c0 9.648438 7.851562 17.5 17.5 17.5h2.917969v17h-2.917969c-9.648438 0-17.5 7.851562-17.5 17.5v19c0 9.648438 7.851562 17.5 17.5 17.5h2.917969v8h-2.917969c-9.648438 0-17.5 7.851562-17.5 17.5v19c0 9.648438 7.851562 17.5 17.5 17.5h2.917969v163c0 15.164062 12.335937 27.5 27.5 27.5h243.164062c15.164063 0 27.5-12.335938 27.5-27.5v-171.644531c0-4.144531-3.355469-7.5-7.5-7.5s-7.5 3.355469-7.5 7.5v52.167969h-107.375l13.203125-25.601563c1.898438-3.679687.453125-8.203125-3.230468-10.101563-3.683594-1.898437-8.207032-.453124-10.105469 3.226563l-37.40625 72.542969v-143.089844c0-7.445312-6.054688-13.5-13.5-13.5h-28.101563l73.011719-141.589844v143.089844c0 7.445312 6.054687 13.5 13.5 13.5h28.105469l-20.324219 39.410156c-1.898437 3.683594-.453125 8.203125 3.230469 10.105469 3.683594 1.894531 8.203125.453125 10.101562-3.230469l21.453125-41.597656c2.175781-4.21875 2-9.160156-.472656-13.214844-2.472656-4.050781-6.78125-6.472656-11.527344-6.472656h-29.066406v-16.140625h98.507813v47.835937c0 4.140626 3.355468 7.5 7.5 7.5 4.140624 0 7.5-3.359374 7.5-7.5v-111.695312h2.914062c9.648438 0 17.5-7.851562 17.5-17.5v-59c0-9.648438-7.851562-17.5-17.5-17.5zm-304 99c-1.378906 0-2.5-1.121094-2.5-2.5v-79c0-1.378906 1.121094-2.5 2.5-2.5h2.917969v84zm0 71c-1.378906 0-2.5-1.121094-2.5-2.5v-19c0-1.378906 1.121094-2.5 2.5-2.5h2.917969v24zm0 62c-1.378906 0-2.5-1.121094-2.5-2.5v-19c0-1.378906 1.121094-2.5 2.5-2.5h2.917969v24zm273.582031 190.5h-243.164062c-6.894531 0-12.5-5.605469-12.5-12.5v-23h268.164062v23c0 6.894531-5.605469 12.5-12.5 12.5zm-121.914062-79.539062 19.304687-37.4375h115.109375v66.476562h-268.164062v-66.476562h108.25v31.25c0 6.347656 4.148437 11.621093 10.316406 13.117187 1.113281.269531 2.222656.402344 3.3125.402344 4.957031 0 9.484375-2.707031 11.871094-7.332031zm-25.5-153.960938v101.523438h-108.25v-132.660157h73.09375l-5.90625 11.449219c-2.175781 4.222656-2 9.160156.472656 13.214844 2.472656 4.050781 6.78125 6.472656 11.527344 6.472656zm61.410156-46.136719v-116.636719c0-6.347656-4.144531-11.621093-10.316406-13.117187-6.171875-1.5-12.273438 1.289063-15.183594 6.933594l-63.332031 122.820312h-80.828125v-151.863281h268.164062v151.863281zm118.921875-66.363281c0 1.378906-1.121094 2.5-2.5 2.5h-2.917969v-64h2.917969c1.378906 0 2.5 1.121094 2.5 2.5zm0 0"/><path d="m189.082031 41.835938c4.144531 0 7.5-3.359376 7.5-7.5 0-4.144532-3.355469-7.5-7.5-7.5h-39.164062c-4.144531 0-7.5 3.355468-7.5 7.5 0 4.140624 3.355469 7.5 7.5 7.5zm0 0"/><path d="m61.90625 96.824219c4.105469 0 7.457031-3.304688 7.5-7.417969.042969-4.144531-3.277344-7.535156-7.421875-7.582031h-.089844c-.027343 0-.054687 0-.082031 0-4.105469 0-7.410156 3.304687-7.453125 7.421875-.042969 4.140625 3.324219 7.535156 7.464844 7.578125zm0 0"/><path d="m91.058594 110.976562h-.089844c-4.144531 0-7.457031 3.359376-7.457031 7.5 0 4.144532 3.402343 7.5 7.546875 7.5 4.144531 0 7.5-3.355468 7.5-7.5 0-4.140624-3.359375-7.5-7.5-7.5zm0 0"/><path d="m93.820312 86.519531c-2.929687-2.929687-7.679687-2.929687-10.605468 0l-24.160156 24.15625c-2.929688 2.929688-2.929688 7.679688 0 10.605469 1.464843 1.464844 3.382812 2.199219 5.300781 2.199219 1.921875 0 3.839843-.734375 5.304687-2.195313l24.160156-24.160156c2.929688-2.929688 2.929688-7.679688 0-10.605469zm0 0"/></svg>