<svg height="512pt" viewBox="0 -86 512 512" width="512pt" xmlns="http://www.w3.org/2000/svg"><g fill="#93a3af"><path d="m161 17.5v13h-79v-13c0-5.523438 4.476562-10 10-10h59c5.523438 0 10 4.476562 10 10zm0 0"/><path d="m252 321.5v-13h-39v13c0 5.523438 4.476562 10 10 10h19c5.523438 0 10-4.476562 10-10zm0 0"/><path d="m181 321.5v-13h-99v13c0 5.523438 4.476562 10 10 10h79c5.523438 0 10-4.476562 10-10zm0 0"/><path d="m314 321.5v-13h-39v13c0 5.523438 4.476562 10 10 10h19c5.523438 0 10-4.476562 10-10zm0 0"/></g><path d="m504.5 47.917969v243.160156c0 11.050781-8.949219 20-20 20h-457c-11.050781 0-20-8.949219-20-20v-243.160156c0-11.050781 8.949219-20 20-20h457c11.050781 0 20 8.949219 20 20zm0 0" fill="#faaa3c"/><path d="m504.5 47.917969v243.160156c0 11.050781-8.949219 20-20 20h-17.5c11.050781 0 20-8.949219 20-20v-243.160156c0-11.050781-8.949219-20-20-20h17.5c11.050781 0 20 8.949219 20 20zm0 0" fill="#e79732"/><path d="m58 27.921875h396v283.15625h-396zm0 0" fill="#627687"/><path d="m437 27.917969h17v283.164062h-17zm0 0" fill="#455e6d"/><path d="m58 27.921875h396v182.6875h-396zm0 0" fill="#ebeef2"/><path d="m437 27.921875h17v182.6875h-17zm0 0" fill="#d3d8df"/><path d="m223.753906 78.066406v57.433594c0 7.351562 8.09375 11.828125 14.320313 7.921875l45.789062-28.714844c5.84375-3.667969 5.84375-12.179687 0-15.847656l-45.789062-28.714844c-6.226563-3.90625-14.320313.570313-14.320313 7.921875zm0 0" fill="#eb5777"/><path d="m421.222656 269.335938c0 7.421874-6.019531 13.441406-13.445312 13.441406-7.425782 0-13.445313-6.019532-13.445313-13.441406 0-7.425782 6.019531-13.445313 13.445313-13.445313 7.425781 0 13.445312 6.019531 13.445312 13.445313zm0 0" fill="#5f9eeb"/><path d="m484.5 20.417969h-259.050781c-4.140625 0-7.5 3.359375-7.5 7.5s3.359375 7.5 7.5 7.5h221.050781v167.691406h-381v-167.691406h127.289062c4.140626 0 7.5-3.359375 7.5-7.5s-3.359374-7.5-7.5-7.5h-24.289062v-2.917969c0-9.648438-7.851562-17.5-17.5-17.5h-59c-9.648438 0-17.5 7.851562-17.5 17.5v2.917969h-47c-15.164062 0-27.5 12.335937-27.5 27.5v41.4375c0 4.140625 3.359375 7.5 7.5 7.5s7.5-3.359375 7.5-7.5v-41.4375c0-6.894531 5.605469-12.5 12.5-12.5h23v268.164062h-23c-6.894531 0-12.5-5.609375-12.5-12.5v-169.066406c0-4.140625-3.359375-7.5-7.5-7.5s-7.5 3.359375-7.5 7.5v169.066406c0 15.164063 12.335938 27.5 27.5 27.5h47v2.917969c0 9.648438 7.851562 17.5 17.5 17.5h79c9.648438 0 17.5-7.851562 17.5-17.5v-2.917969h17v2.917969c0 9.648438 7.851562 17.5 17.5 17.5h19c9.648438 0 17.5-7.851562 17.5-17.5v-2.917969h8v2.917969c0 9.648438 7.851562 17.5 17.5 17.5h19c9.648438 0 17.5-7.851562 17.5-17.5v-2.917969h12.28125c4.144531 0 7.5-3.359375 7.5-7.5s-3.355469-7.5-7.5-7.5h-268.28125v-85.472656h381v85.472656h-80.058594c-4.140625 0-7.5 3.359375-7.5 7.5s3.359375 7.5 7.5 7.5h118.058594c15.164062 0 27.5-12.335937 27.5-27.5v-243.164062c0-15.164063-12.335938-27.5-27.5-27.5zm-395-2.917969c0-1.378906 1.121094-2.5 2.5-2.5h59c1.378906 0 2.5 1.121094 2.5 2.5v2.917969h-64zm84 304c0 1.378906-1.121094 2.5-2.5 2.5h-79c-1.378906 0-2.5-1.121094-2.5-2.5v-2.917969h84zm71 0c0 1.378906-1.121094 2.5-2.5 2.5h-19c-1.378906 0-2.5-1.121094-2.5-2.5v-2.917969h24zm62 0c0 1.378906-1.121094 2.5-2.5 2.5h-19c-1.378906 0-2.5-1.121094-2.5-2.5v-2.917969h24zm190.5-30.417969c0 6.894531-5.605469 12.5-12.5 12.5h-23v-268.164062h23c6.894531 0 12.5 5.605469 12.5 12.5zm0 0"/><path d="m34.332031 196.582031c4.144531 0 7.5-3.359375 7.5-7.5v-39.164062c0-4.140625-3.355469-7.5-7.5-7.5-4.140625 0-7.5 3.359375-7.5 7.5v39.164062c0 4.140625 3.359375 7.5 7.5 7.5zm0 0"/><path d="m224.949219 150.246094c2.539062 1.40625 5.351562 2.105468 8.15625 2.105468 3.113281 0 6.222656-.863281 8.953125-2.574218l45.789062-28.71875c4.949219-3.101563 7.898438-8.4375 7.898438-14.277344 0-5.835938-2.953125-11.175781-7.898438-14.273438l-45.789062-28.71875c-5.191406-3.253906-11.746094-3.433593-17.109375-.46875-5.363281 2.964844-8.695313 8.617188-8.695313 14.746094v57.433594c0 6.128906 3.332032 11.777344 8.695313 14.746094zm6.304687-72.179688c0-.902344.519532-1.378906.957032-1.621094.234374-.132812.546874-.246093.902343-.246093.296875 0 .628907.078125.976563.296875l45.789062 28.71875c.71875.449218.867188 1.097656.867188 1.566406s-.148438 1.121094-.867188 1.570312l-45.789062 28.714844c-.765625.480469-1.445313.292969-1.878906.050782-.4375-.238282-.957032-.714844-.957032-1.621094zm0 0"/><path d="m358 166c-4.140625 0-7.5 3.359375-7.5 7.5v.5h-246.5c-4.140625 0-7.5 3.359375-7.5 7.5s3.359375 7.5 7.5 7.5h246.5v.082031c0 4.140625 3.359375 7.5 7.5 7.5s7.5-3.359375 7.5-7.5v-.082031h55.5c4.140625 0 7.5-3.359375 7.5-7.5s-3.359375-7.5-7.5-7.5h-55.5v-.5c0-4.140625-3.359375-7.5-7.5-7.5zm0 0"/><path d="m94.578125 244.054688h6.335937c4.140626 0 7.5-3.359376 7.5-7.5 0-4.140626-3.359374-7.5-7.5-7.5h-6.335937c-4.140625 0-7.5 3.359374-7.5 7.5 0 4.140624 3.359375 7.5 7.5 7.5zm0 0"/><path d="m131.914062 244.054688c4.140626 0 7.5-3.359376 7.5-7.5 0-4.140626-3.359374-7.5-7.5-7.5h-6.335937c-4.140625 0-7.5 3.359374-7.5 7.5 0 4.140624 3.359375 7.5 7.5 7.5zm0 0"/><path d="m162.914062 244.054688c4.140626 0 7.5-3.359376 7.5-7.5 0-4.140626-3.359374-7.5-7.5-7.5h-6.335937c-4.140625 0-7.5 3.359374-7.5 7.5 0 4.140624 3.359375 7.5 7.5 7.5zm0 0"/><path d="m145.078125 261.613281c0 4.140625 3.359375 7.5 7.5 7.5h59c4.144531 0 7.5-3.359375 7.5-7.5 0-4.144531-3.355469-7.5-7.5-7.5h-59c-4.140625 0-7.5 3.355469-7.5 7.5zm0 0"/><path d="m94.578125 269.113281h37.335937c4.140626 0 7.5-3.359375 7.5-7.5 0-4.144531-3.359374-7.5-7.5-7.5h-37.335937c-4.140625 0-7.5 3.355469-7.5 7.5 0 4.140625 3.359375 7.5 7.5 7.5zm0 0"/><path d="m94.578125 290.277344h193.667969c4.144531 0 7.5-3.355469 7.5-7.5 0-4.140625-3.355469-7.5-7.5-7.5h-193.667969c-4.140625 0-7.5 3.359375-7.5 7.5 0 4.144531 3.359375 7.5 7.5 7.5zm0 0"/><path d="m428.5 236.554688c0-4.140626-3.359375-7.5-7.5-7.5h-63c-4.140625 0-7.5 3.359374-7.5 7.5 0 4.140624 3.359375 7.5 7.5 7.5h63c4.140625 0 7.5-3.359376 7.5-7.5zm0 0"/><path d="m407.777344 248.390625c-11.546875 0-20.945313 9.394531-20.945313 20.945313 0 11.546874 9.398438 20.941406 20.945313 20.941406s20.945312-9.394532 20.945312-20.941406c0-11.550782-9.398437-20.945313-20.945312-20.945313zm0 26.886719c-3.277344 0-5.945313-2.667969-5.945313-5.941406 0-3.28125 2.667969-5.945313 5.945313-5.945313s5.945312 2.667969 5.945312 5.945313c0 3.277343-2.667968 5.941406-5.945312 5.941406zm0 0"/></svg>