<svg height="512pt" viewBox="-86 0 512 512" width="512pt" xmlns="http://www.w3.org/2000/svg"><g fill="#93a3af"><path d="m321.5 161h-13v-79h13c5.523438 0 10 4.476562 10 10v59c0 5.523438-4.476562 10-10 10zm0 0"/><path d="m17.5 252h13v-39h-13c-5.523438 0-10 4.476562-10 10v19c0 5.523438 4.476562 10 10 10zm0 0"/><path d="m17.5 181h13v-99h-13c-5.523438 0-10 4.476562-10 10v79c0 5.523438 4.476562 10 10 10zm0 0"/><path d="m17.5 314h13v-39h-13c-5.523438 0-10 4.476562-10 10v19c0 5.523438 4.476562 10 10 10zm0 0"/></g><path d="m27.917969 484.5v-457c0-11.046875 8.953125-20 20-20h243.164062c11.046875 0 20 8.953125 20 20v457c0 11.046875-8.953125 20-20 20h-243.164062c-11.046875 0-20-8.953125-20-20zm0 0" fill="#7b8c98"/><path d="m311.078125 27.5v457c0 11.050781-8.949219 20-20 20h-19.578125c11.050781 0 20-8.949219 20-20v-457c0-11.050781-8.949219-20-20-20h19.578125c11.050781 0 20 8.949219 20 20zm0 0" fill="#627687"/><path d="m27.917969 58h283.164062v396h-283.164062zm0 0" fill="#faaa3c"/><path d="m291.5 58h19.582031v396h-19.582031zm0 0" fill="#e79732"/><path d="m201.832031 381.167969c0 17.855469-14.476562 32.332031-32.332031 32.332031s-32.332031-14.476562-32.332031-32.332031c0-17.859375 14.476562-32.332031 32.332031-32.332031s32.332031 14.472656 32.332031 32.332031zm0 0" fill="#ebeef2"/><path d="m223.507812 153h-108.015624c-10.765626 0-19.492188-8.726562-19.492188-19.492188v-7.597656c0-10.765625 8.726562-19.492187 19.492188-19.492187h108.015624c10.765626 0 19.492188 8.726562 19.492188 19.492187v7.597656c0 10.765626-8.726562 19.492188-19.492188 19.492188zm0 0" fill="#ebeef2"/><path d="m321.5 74.5h-2.917969v-47c0-15.164062-12.335937-27.5-27.5-27.5h-169.183593c-4.144532 0-7.5 3.359375-7.5 7.5s3.355468 7.5 7.5 7.5h169.183593c6.894531 0 12.5 5.605469 12.5 12.5v23h-268.164062v-23c0-6.894531 5.605469-12.5 12.5-12.5h41.316406c4.144531 0 7.5-3.359375 7.5-7.5s-3.355469-7.5-7.5-7.5h-41.316406c-15.164063 0-27.5 12.335938-27.5 27.5v47h-2.917969c-9.648438 0-17.5 7.851562-17.5 17.5v79c0 9.648438 7.851562 17.5 17.5 17.5h2.917969v17h-2.917969c-9.648438 0-17.5 7.851562-17.5 17.5v19c0 9.648438 7.851562 17.5 17.5 17.5h2.917969v8h-2.917969c-9.648438 0-17.5 7.851562-17.5 17.5v19c0 9.648438 7.851562 17.5 17.5 17.5h2.917969v20.847656c0 4.140625 3.355469 7.5 7.5 7.5s7.5-3.359375 7.5-7.5v-276.847656h268.164062v180.851562c0 4.144532 3.355469 7.5 7.5 7.5s7.5-3.355468 7.5-7.5v-77.851562h2.917969c9.648438 0 17.5-7.851562 17.5-17.5v-59c0-9.648438-7.851562-17.5-17.5-17.5zm-304 99c-1.378906 0-2.5-1.121094-2.5-2.5v-79c0-1.378906 1.121094-2.5 2.5-2.5h2.917969v84zm0 71c-1.378906 0-2.5-1.121094-2.5-2.5v-19c0-1.378906 1.121094-2.5 2.5-2.5h2.917969v24zm0 62c-1.378906 0-2.5-1.121094-2.5-2.5v-19c0-1.378906 1.121094-2.5 2.5-2.5h2.917969v24zm306.5-155.5c0 1.378906-1.121094 2.5-2.5 2.5h-2.917969v-64h2.917969c1.378906 0 2.5 1.121094 2.5 2.5zm0 0"/><path d="m311.082031 271.515625c-4.144531 0-7.5 3.355469-7.5 7.5v167.484375h-268.164062v-71.492188c0-4.140624-3.355469-7.5-7.5-7.5s-7.5 3.359376-7.5 7.5v109.492188c0 15.164062 12.335937 27.5 27.5 27.5h243.164062c15.164063 0 27.5-12.335938 27.5-27.5v-205.484375c0-4.144531-3.355469-7.5-7.5-7.5zm-20 225.484375h-243.164062c-6.894531 0-12.5-5.605469-12.5-12.5v-23h268.164062v23c0 6.894531-5.605469 12.5-12.5 12.5zm0 0"/><path d="m189.082031 41.832031c4.144531 0 7.5-3.355469 7.5-7.5 0-4.140625-3.355469-7.5-7.5-7.5h-39.164062c-4.144531 0-7.5 3.359375-7.5 7.5 0 4.144531 3.355469 7.5 7.5 7.5zm0 0"/><path d="m129.667969 381.167969c0 21.964843 17.867187 39.832031 39.832031 39.832031s39.832031-17.867188 39.832031-39.832031c0-21.964844-17.867187-39.832031-39.832031-39.832031s-39.832031 17.867187-39.832031 39.832031zm64.664062 0c0 13.691406-11.140625 24.832031-24.832031 24.832031s-24.832031-11.140625-24.832031-24.832031c0-13.695313 11.140625-24.832031 24.832031-24.832031s24.832031 11.136718 24.832031 24.832031zm0 0"/><path d="m68 384.332031c0 4.144531 3.355469 7.5 7.5 7.5h17.332031c4.144531 0 7.5-3.355469 7.5-7.5 0-4.140625-3.355469-7.5-7.5-7.5h-17.332031c-4.144531 0-7.5 3.359375-7.5 7.5zm0 0"/><path d="m238.667969 384.332031c0 4.144531 3.355469 7.5 7.5 7.5h17.332031c4.144531 0 7.5-3.355469 7.5-7.5 0-4.140625-3.355469-7.5-7.5-7.5h-17.332031c-4.144531 0-7.5 3.359375-7.5 7.5zm0 0"/><path d="m223.507812 98.917969h-108.015624c-14.882813 0-26.992188 12.109375-26.992188 26.992187v7.597656c0 14.882813 12.109375 26.992188 26.992188 26.992188h108.015624c14.882813 0 26.992188-12.109375 26.992188-26.992188v-7.597656c0-14.882812-12.109375-26.992187-26.992188-26.992187zm11.992188 34.589843c0 6.613282-5.382812 11.992188-11.992188 11.992188h-108.015624c-6.609376 0-11.992188-5.378906-11.992188-11.992188v-7.597656c0-6.609375 5.382812-11.992187 11.992188-11.992187h108.015624c6.609376 0 11.992188 5.378906 11.992188 11.992187zm0 0"/><path d="m134.5 120c-4.144531 0-7.5 3.359375-7.5 7.5v3.5c0 4.140625 3.355469 7.5 7.5 7.5s7.5-3.359375 7.5-7.5v-3.5c0-4.140625-3.355469-7.5-7.5-7.5zm0 0"/><path d="m210 121.75h-52.5c-4.144531 0-7.5 3.359375-7.5 7.5s3.355469 7.5 7.5 7.5h52.5c4.144531 0 7.5-3.359375 7.5-7.5s-3.355469-7.5-7.5-7.5zm0 0"/><path d="m234 289.085938v-49.804688c0-10.59375-8.617188-19.210938-19.210938-19.210938h-11.578124l-1.882813-9.0625c-1.84375-8.867187-9.753906-15.304687-18.8125-15.304687h-26.035156c-9.054688 0-16.964844 6.4375-18.808594 15.304687l-1.882813 9.0625h-11.578124c-10.59375 0-19.210938 8.617188-19.210938 19.210938v49.804688c0 10.589843 8.617188 19.210937 19.210938 19.210937h90.574218c10.597656 0 19.214844-8.617187 19.214844-19.210937zm-114 0v-49.804688c0-2.320312 1.890625-4.210938 4.210938-4.210938h17.679687c3.554687 0 6.621094-2.496093 7.34375-5.972656l3.125-15.039062c.402344-1.945313 2.136719-3.355469 4.125-3.355469h26.035156c1.984375 0 3.71875 1.410156 4.121094 3.355469l3.125 15.039062c.722656 3.476563 3.789063 5.972656 7.34375 5.972656h17.679687c2.320313 0 4.210938 1.890626 4.210938 4.210938v49.804688c0 2.320312-1.890625 4.210937-4.210938 4.210937h-90.574218c-2.324219 0-4.214844-1.890625-4.214844-4.210937zm0 0"/><path d="m169.5 238.039062c-11.992188 0-21.75 9.757813-21.75 21.75 0 11.996094 9.757812 21.75 21.75 21.75s21.75-9.753906 21.75-21.75c0-11.992187-9.757812-21.75-21.75-21.75zm0 28.5c-3.722656 0-6.75-3.027343-6.75-6.75 0-3.71875 3.027344-6.75 6.75-6.75s6.75 3.03125 6.75 6.75c0 3.722657-3.027344 6.75-6.75 6.75zm0 0"/></svg>